<svg width="248" height="100" viewBox="0 0 248 100" fill="none" xmlns="http://www.w3.org/2000/svg">
<path d="M0 42.1455H3.90948V57.8553H12.1698V61.0098H0V42.1455Z" fill="#0E1420"/>
<path d="M13.8726 42.1455H26.4838V45.3001H17.719V49.7796H25.2227V52.808H17.719V57.8553H26.4838V61.0098H13.8726V42.1455Z" fill="#0E1420"/>
<path d="M202.663 35.6465H187.781L174.603 0.189068C176.62 0.189068 182.358 0.189068 189.484 0.125977L202.663 35.6465Z" fill="url(#paint0_linear_164_753)"/>
<path d="M217.544 35.6469H202.663L189.484 0.189453C194.087 0.189453 199.195 0.189453 204.365 0.189453L217.544 35.6469Z" fill="url(#paint1_linear_164_753)"/>
<path d="M232.551 35.6465H217.544L204.365 0.125977C209.599 0.125977 214.832 0.125977 219.309 0.125977L232.551 35.6465Z" fill="url(#paint2_linear_164_753)"/>
<path d="M0.189941 17.0978C0.189941 9.21136 3.40581 3.59621 8.82864 1.19874C10.6573 0.378549 12.612 0 14.882 0C23.5207 0 28.2499 4.79495 29.1327 12.4921H21.8182C21.566 8.20189 19.4851 5.99369 14.882 5.99369C9.14392 5.99369 7.56752 10.6625 7.56752 17.0347V19.3691C7.56752 25.4259 8.8917 30.4101 14.819 30.4101C19.359 30.4101 21.566 28.3281 21.8182 24.1009H29.1327C28.6913 30.0315 25.4755 33.817 20.6832 35.5205C18.9807 36.0883 17.0259 36.4038 14.882 36.4038C7.31529 36.4038 3.02747 32.1767 1.19884 26.4353C0.505222 24.3533 0.189941 22.0189 0.189941 19.3691V17.0978Z" fill="#0E1420"/>
<path d="M32.3477 0.504883H39.5991V35.9623H32.3477V0.504883Z" fill="#0E1420"/>
<path d="M43.3823 0.504883H50.6968L64.9475 23.8487V0.504883H72.199V35.9623H64.8845L50.6968 12.6184V35.9623H43.3823V0.504883Z" fill="#0E1420"/>
<path d="M75.9194 0.504883H99.6285V6.43548H83.2339V14.8897H97.2324V20.6311H83.2339V30.0948H99.6916V35.9623H75.9194V0.504883Z" fill="#0E1420"/>
<path d="M102.908 0.504883H112.492L121.635 26.2462L130.652 0.504883H140.237V35.9623H132.922V26.2462L133.616 9.52697L124.032 35.9623H119.05L109.466 9.59006L110.222 26.3093V35.9623H102.908V0.504883Z" fill="#0E1420"/>
<path d="M156.821 0.504883H163.568L176.809 35.9623H169.053L166.594 28.7068H153.857L151.398 35.9623H143.642L156.821 0.504883ZM164.64 22.7131L160.226 9.46387L155.812 22.7131H164.64Z" fill="#0E1420"/>
<path d="M32.3479 42.0195H55.4265V47.9501H39.6624V57.0984H53.6609V62.9659H39.6624V77.477H32.3479V42.0195Z" fill="#0E1420"/>
<path d="M58.3901 42.0195H82.0992V47.9501H65.7046V56.4044H79.7031V62.1457H65.7046V71.6094H82.1623V77.477H58.3901V42.0195Z" fill="#0E1420"/>
<path d="M92.0619 66.3096C92.0619 70.5998 94.7733 72.1771 99.0612 72.1771C102.088 72.1771 104.61 71.1046 104.61 68.1393C104.61 65.6156 103.097 64.6692 101.142 63.849C100.259 63.4705 99.1242 63.0288 97.6739 62.5872C93.1969 61.1361 88.783 59.3064 86.7652 55.4579C86.1977 54.3222 85.8824 52.9973 85.8824 51.42C85.8824 46.2465 89.5397 43.4705 93.6383 42.2717C95.2147 41.767 96.9803 41.5146 98.935 41.5146C104.862 41.5146 109.087 44.0383 110.979 48.0762C111.546 49.4011 111.925 50.8522 111.925 52.4926H104.673C104.673 49.0225 102.34 47.3822 98.8089 47.3822C95.7192 47.3822 93.1969 48.5178 93.1969 51.5462C93.1969 52.6818 93.7644 53.6913 94.9625 54.5115C96.1606 55.3317 97.9261 56.0257 100.196 56.7197C104.925 58.1708 109.402 60.1266 111.231 64.2907C111.735 65.4263 111.988 66.7512 111.988 68.2023C111.988 73.4389 108.646 76.1519 104.484 77.3506C102.908 77.7922 101.079 78.0446 99.1242 78.0446C92.3142 78.0446 87.2066 75.0793 85.441 70.032C85.0627 68.9594 84.8735 67.7607 84.8735 66.3727H92.0619V66.3096Z" fill="#0E1420"/>
<path d="M114.573 42.0195H143.39V47.9501H132.544V77.477H125.23V47.9501H114.573V42.0195Z" fill="#0E1420"/>
<path d="M146.417 42.0195H153.668V77.477H146.417V42.0195Z" fill="#0E1420"/>
<path d="M164.766 42.0195L172.711 68.7072L180.719 42.0195H188.853L176.558 77.477H168.991L156.695 42.0195H164.766Z" fill="#0E1420"/>
<path d="M202.347 42.0195H209.095L222.336 77.477H214.58L212.121 70.2214H199.321L196.862 77.477H189.169L202.347 42.0195ZM210.166 64.2277L205.753 50.9785L201.339 64.2277H210.166Z" fill="#0E1420"/>
<path d="M225.174 42.0195H232.488V71.5463H248V77.4138H225.174V42.0195Z" fill="#0E1420"/>
<path d="M3.09035 88.3906H3.97314L2.08145 97.2865H0.883383L2.20756 90.9774H0.126709L0.315878 90.0941C1.13561 90.031 1.76617 89.9048 2.08145 89.7155C2.45979 89.5263 2.77507 89.0846 3.09035 88.3906Z" fill="#0E1420"/>
<path d="M12.2328 89.7792C11.9175 88.8329 11.1608 88.3281 10.0258 88.3281C8.76467 88.3281 7.69271 89.0221 6.93604 90.347C6.49464 91.1041 6.17936 91.9243 5.99019 92.9338C5.73797 94.2587 5.73797 95.2682 5.99019 96.0884C6.30547 97.0347 6.99909 97.4764 8.07105 97.4764C9.26912 97.4764 10.215 96.9086 11.0347 95.7729C11.5391 94.9527 11.9805 93.9433 12.2328 92.7445C12.485 91.5458 12.485 90.5363 12.2328 89.7792ZM10.9716 92.8707C10.6564 94.2587 10.278 95.2682 9.83662 95.7729C9.39523 96.2777 8.89078 96.53 8.26022 96.53C7.5666 96.53 7.12521 96.0884 6.99909 95.2682C6.93604 94.7004 6.99909 94.0064 7.18826 93.06C7.44049 91.8612 7.81882 90.9149 8.26022 90.284C8.70161 89.653 9.26912 89.3376 9.89968 89.3376C10.5933 89.3376 11.0347 89.653 11.1608 90.347C11.2869 90.978 11.2239 91.8612 10.9716 92.8707Z" fill="#0E1420"/>
<path d="M19.3582 89.7792C19.043 88.8329 18.2863 88.3281 17.1513 88.3281C15.8902 88.3281 14.8182 89.0221 14.0615 90.347C13.6201 91.1041 13.3049 91.9243 13.1157 92.9338C12.8635 94.2587 12.8635 95.2682 13.1157 96.0884C13.431 97.0347 14.1246 97.4764 15.1965 97.4764C16.3946 97.4764 17.3404 96.9086 18.1602 95.7729C18.6646 94.9527 19.106 93.9433 19.3582 92.7445C19.6105 91.5458 19.6105 90.5363 19.3582 89.7792ZM18.0971 92.8707C17.7818 94.2587 17.4035 95.2682 16.9621 95.7729C16.5207 96.2777 16.0163 96.53 15.3857 96.53C14.6921 96.53 14.2507 96.0884 14.1246 95.2682C14.0615 94.7004 14.1246 94.0064 14.3138 93.06C14.566 91.8612 14.9443 90.9149 15.3857 90.284C15.8271 89.653 16.3946 89.3376 17.0252 89.3376C17.7188 89.3376 18.1602 89.653 18.2863 90.347C18.3493 90.978 18.3493 91.8612 18.0971 92.8707Z" fill="#0E1420"/>
<path d="M24.7812 89.2745C24.4659 88.8328 23.9615 88.6436 23.394 88.6436C22.7634 88.6436 22.2589 88.8328 21.6914 89.2745C21.187 89.7161 20.8717 90.2208 20.7456 90.7887C20.6195 91.3565 20.7456 91.9243 21.0609 92.3028C21.3762 92.7445 21.8806 92.9338 22.4481 92.9338C23.0787 92.9338 23.5831 92.7445 24.1506 92.3028C24.6551 91.8612 24.9704 91.3565 25.0965 90.7887C25.1595 90.2208 25.0965 89.7161 24.7812 89.2745ZM24.1506 90.7887C24.0876 91.1672 23.8984 91.4196 23.5831 91.6719C23.2678 91.9243 22.9526 92.0505 22.5742 92.0505C22.1959 92.0505 21.9437 91.9243 21.7545 91.6719C21.5653 91.4196 21.5023 91.1041 21.5653 90.7887C21.6284 90.4101 21.8175 90.1577 22.1328 89.9054C22.4481 89.653 22.7634 89.5268 23.1417 89.5268C23.5201 89.5268 23.7723 89.653 23.9615 89.9054C24.2137 90.1577 24.2767 90.4732 24.1506 90.7887Z" fill="#0E1420"/>
<path d="M29.3212 88.3906L22.385 97.5389H21.6914L28.6276 88.3906H29.3212Z" fill="#0E1420"/>
<path d="M29.9516 93.5645C29.6363 93.1229 29.1319 92.9336 28.5644 92.9336C27.9338 92.9336 27.4293 93.1229 26.8618 93.5645C26.3574 94.0062 26.0421 94.5109 25.916 95.0787C25.7899 95.7096 25.916 96.2144 26.2313 96.5929C26.5466 97.0346 27.051 97.2238 27.6185 97.2238C28.2491 97.2238 28.7535 97.0346 29.321 96.5929C29.8255 96.1513 30.1408 95.6465 30.2669 95.0787C30.393 94.5109 30.2669 94.0062 29.9516 93.5645ZM29.3841 95.1418C29.321 95.5204 29.1319 95.7727 28.8166 96.0251C28.5013 96.2775 28.186 96.4036 27.8077 96.4036C27.4293 96.4036 27.1771 96.2775 26.988 96.0251C26.7988 95.7727 26.7357 95.4573 26.7988 95.1418C26.8618 94.7633 27.051 94.5109 27.3663 94.2585C27.6816 94.0061 27.9969 93.88 28.3752 93.88C28.7535 93.88 29.0058 94.0061 29.1949 94.2585C29.3841 94.4478 29.4471 94.7633 29.3841 95.1418Z" fill="#0E1420"/>
<path d="M40.4189 90.9776C40.7972 91.3562 40.9864 91.9871 40.8603 92.8704H39.7883C39.7883 92.4287 39.7253 92.1133 39.5361 91.8609C39.3469 91.6086 39.0316 91.4824 38.4641 91.4824C37.7705 91.4824 37.14 91.8609 36.6986 92.5549C36.3833 92.9966 36.1941 93.5644 36.068 94.2584C35.9419 94.9524 35.9419 95.5202 36.131 95.9618C36.3202 96.4035 36.6986 96.6558 37.3291 96.6558C37.7705 96.6558 38.2119 96.5297 38.5272 96.2142C38.8425 95.8988 39.1578 95.5202 39.3469 95.0155H40.4189C40.1036 95.8988 39.6622 96.5297 39.0947 96.9713C38.5272 97.3498 37.8336 97.6022 37.0769 97.6022C36.1941 97.6022 35.5635 97.2868 35.1852 96.6558C34.8069 96.0249 34.6808 95.2047 34.933 94.2584C35.1852 93.0596 35.6897 92.1764 36.3833 91.5455C37.0769 90.9146 37.8966 90.536 38.7794 90.536C39.473 90.4098 40.0405 90.5991 40.4189 90.9776Z" fill="#0E1420"/>
<path d="M42.4999 90.6621H43.6349L42.1846 97.2867H41.0496L42.4999 90.6621Z" fill="#0E1420"/>
<path d="M44.1392 88.1387L43.887 89.4005H42.752L43.0042 88.1387H44.1392Z" fill="#0E1420"/>
<path d="M50.3188 91.4826C50.4449 91.8611 50.3818 92.3659 50.2557 93.0599L49.3729 97.3501H48.2379L49.1207 93.123C49.1838 92.7444 49.2468 92.3659 49.1207 92.1135C48.9946 91.6719 48.6793 91.4826 48.1749 91.4826C47.9226 91.4826 47.6704 91.4826 47.4812 91.5457C47.166 91.6088 46.8507 91.798 46.5354 92.1135C46.2832 92.3028 46.1571 92.5551 46.0309 92.8075C45.9048 93.0599 45.8418 93.3753 45.7157 93.817L44.959 97.3501H43.824L45.2112 90.6624H46.2832L46.094 91.6088C46.4723 91.2302 46.9137 90.9148 47.2921 90.7886C47.6704 90.6624 48.1118 90.5362 48.5532 90.5362C49.5621 90.4731 50.1296 90.7886 50.3188 91.4826Z" fill="#0E1420"/>
<path d="M55.1112 89.7158H54.2915L55.6157 87.9492H57.0029L55.1112 89.7158Z" fill="#0E1420"/>
<path d="M57.381 94.3212C57.5071 93.6272 57.5702 93.1225 57.5702 92.8701C57.5702 92.4285 57.5071 92.0499 57.381 91.6714C57.2549 91.2928 56.9396 91.0405 56.5613 90.7881C56.1829 90.5357 55.7415 90.4727 55.2371 90.4727C54.2912 90.4727 53.4715 90.7881 52.7148 91.4821C52.0212 92.1761 51.5168 92.9963 51.2645 94.132C51.0123 95.2045 51.1384 96.0878 51.5798 96.6556C52.0212 97.2865 52.6518 97.5389 53.4715 97.5389C53.7868 97.5389 54.1021 97.4758 54.4173 97.4127C54.9218 97.2865 55.4262 97.0973 55.8046 96.7187C56.0568 96.5294 56.309 96.2771 56.4982 95.9616C56.7504 95.6462 56.8765 95.3938 56.9396 95.1414H55.8046C55.6785 95.4569 55.4893 95.7092 55.2371 95.8985C54.7957 96.2771 54.2912 96.4663 53.7237 96.4663C53.0932 96.4663 52.6518 96.2771 52.4626 95.8354C52.2734 95.3938 52.2104 94.8891 52.3365 94.1951H57.381V94.3212ZM53.5346 91.9869C53.976 91.6083 54.4173 91.419 54.9218 91.419C55.6154 91.419 56.1199 91.6714 56.309 92.2392C56.4351 92.5547 56.4351 92.9332 56.3721 93.438H52.6518C52.8409 92.8701 53.1562 92.3654 53.5346 91.9869Z" fill="#0E1420"/>
<path d="M68.1639 92.4922C68.1639 92.6184 68.1008 92.7445 68.1008 92.8707L67.155 97.3502H65.9569L66.9658 92.6814C67.0289 92.2398 67.0289 91.9243 66.8397 91.7351C66.6505 91.5458 66.3983 91.4827 66.083 91.4827C65.6416 91.4827 65.2002 91.6089 64.8219 91.9243C64.4436 92.2398 64.1913 92.7445 64.0022 93.3754L63.1824 97.2871H62.0474L62.9933 92.9338C63.0563 92.4922 63.1194 92.1767 63.0563 91.9243C62.9302 91.6089 62.678 91.4827 62.1735 91.4827C61.7321 91.4827 61.3538 91.672 60.9124 91.9874C60.471 92.3029 60.2188 92.9338 60.0296 93.754L59.273 97.2871H58.1379L59.5252 90.5994H60.6602L60.471 91.5458C60.7863 91.2303 61.1016 90.978 61.3538 90.8518C61.7952 90.5994 62.2366 90.4732 62.678 90.4732C63.1824 90.4732 63.6238 90.5994 63.8761 90.8518C64.0022 90.978 64.1283 91.2303 64.2544 91.4827C64.5697 91.1042 64.948 90.8518 65.3263 90.6625C65.7047 90.4732 66.083 90.4102 66.5244 90.4102C66.9027 90.4102 67.218 90.4732 67.4703 90.5994L68.1639 92.4922Z" fill="#0E1420"/>
<path d="M69.9922 97.4758C69.6139 97.4127 69.3617 97.2234 69.1095 96.9711C68.7942 96.5925 68.6681 96.1509 68.7942 95.5831C68.8572 95.3938 68.9203 95.1414 68.9833 94.9521L69.9922 97.4758Z" fill="#0E1420"/>
<path d="M85.7564 88.0752L85.0628 91.4821C84.8736 91.1667 84.6845 90.9774 84.4953 90.8512C84.18 90.6619 83.8017 90.5358 83.2972 90.5358C82.3514 90.5358 81.5947 90.9143 80.9641 91.6083C80.3336 92.3023 79.8922 93.1856 79.703 94.132C79.4508 95.2045 79.5769 96.0247 79.9552 96.6556C80.3966 97.2865 80.9641 97.602 81.7208 97.602C82.1622 97.602 82.6036 97.5389 82.9819 97.3496C83.3603 97.1604 83.7386 96.8449 84.1169 96.4664L83.9278 97.4127H84.9367L86.8914 88.2014H85.7564V88.0752ZM84.5583 93.9427C84.3692 94.7629 84.0539 95.3938 83.6755 95.8985C83.2342 96.3402 82.7928 96.5925 82.2252 96.5925C81.5316 96.5925 81.0902 96.3402 80.9011 95.8985C80.7119 95.3938 80.6488 94.826 80.838 94.0689C81.0272 93.2487 81.3425 92.6178 81.7839 92.1761C82.2253 91.7345 82.7297 91.5452 83.2972 91.5452C83.8017 91.5452 84.18 91.7345 84.4322 92.1761C84.6844 92.4916 84.7475 93.1225 84.5583 93.9427Z" fill="#0E1420"/>
<path d="M89.7919 89.3999C89.6658 89.9046 89.4766 90.4094 89.1614 90.7879C88.8461 91.1665 88.4678 91.3557 88.0264 91.4188L88.1525 90.851C88.4047 90.7879 88.5939 90.6617 88.783 90.4725C88.9722 90.2201 89.0353 89.9677 89.0983 89.7154V89.6523V89.5892H88.4047L88.72 88.2012H90.0442L89.7919 89.3999Z" fill="#0E1420"/>
<path d="M95.7194 92.3023C95.8455 91.6714 95.7194 91.2298 95.278 90.9143C94.8366 90.5988 94.2691 90.4727 93.4493 90.4727C92.7557 90.4727 92.1252 90.6619 91.5577 90.9774C90.9901 91.2928 90.6118 91.8607 90.3596 92.6809H91.4315C91.5577 92.3654 91.6838 92.0499 91.8729 91.9238C92.1882 91.6083 92.6296 91.419 93.1971 91.419C93.7016 91.419 94.0799 91.4821 94.3321 91.6714C94.5844 91.8607 94.6474 92.113 94.5844 92.4916C94.5213 92.6809 94.5213 92.807 94.3952 92.9332C94.2691 93.1225 94.0799 93.2487 93.8277 93.2487L91.999 93.501C91.3685 93.5641 90.801 93.8165 90.3596 94.132C89.9182 94.4474 89.6029 94.9521 89.4768 95.5831C89.3507 96.1509 89.4768 96.5925 89.7921 96.9711C90.1074 97.3496 90.5488 97.5389 91.1793 97.5389C91.6838 97.5389 92.1882 97.4127 92.6927 97.2234C93.1971 97.0342 93.5755 96.7187 93.8277 96.4663C93.8277 96.7187 93.8277 96.908 93.8907 97.0972C94.0168 97.3496 94.2691 97.5389 94.6474 97.5389C94.8366 97.5389 94.9627 97.5389 95.0258 97.5389C95.0888 97.5389 95.278 97.4758 95.4671 97.4758L95.6563 96.6556C95.5933 96.6556 95.5302 96.6556 95.4671 96.6556C95.4041 96.6556 95.341 96.6556 95.278 96.6556C95.1519 96.6556 95.0258 96.5925 95.0258 96.5294C95.0258 96.4663 94.9627 96.3402 95.0258 96.2771L95.7194 92.3023ZM94.0799 94.826C93.9538 95.52 93.5124 96.0247 92.8188 96.3402C92.3774 96.5294 91.9991 96.5925 91.6207 96.5925C91.3054 96.5925 91.0532 96.5294 90.864 96.3402C90.6749 96.1509 90.6118 95.8985 90.6749 95.5831C90.7379 95.1414 90.9901 94.826 91.3685 94.6367C91.6207 94.5105 91.936 94.4474 92.3143 94.3843L93.008 94.3212C93.1971 94.3212 93.4493 94.2581 93.6385 94.1951C93.8907 94.132 94.0799 94.0689 94.206 94.0058L94.0799 94.826Z" fill="#0E1420"/>
<path d="M102.908 91.4826C103.034 91.8611 102.971 92.3659 102.845 93.0599L101.962 97.3501H100.827L101.71 93.123C101.773 92.7444 101.836 92.3659 101.71 92.1135C101.583 91.6719 101.268 91.4826 100.764 91.4826C100.511 91.4826 100.259 91.4826 100.07 91.5457C99.7548 91.6088 99.4395 91.798 99.1243 92.1135C98.872 92.3028 98.7459 92.5551 98.6198 92.8075C98.4937 93.0599 98.4306 93.3753 98.3045 93.817L97.5479 97.3501H96.4128L97.8631 90.6624H98.9351L98.7459 91.6088C99.1243 91.2302 99.5657 90.9148 99.944 90.7886C100.322 90.5993 100.764 90.5362 101.205 90.5362C102.151 90.4731 102.718 90.7886 102.908 91.4826Z" fill="#0E1420"/>
<path d="M105.052 90.6621H106.187L104.799 97.2867H103.601L105.052 90.6621Z" fill="#0E1420"/>
<path d="M106.691 88.1387L106.439 89.4005H105.304L105.556 88.1387H106.691Z" fill="#0E1420"/>
<path d="M116.465 91.4192C116.591 91.7978 116.528 92.2394 116.402 92.8073L115.456 97.2868H114.258L115.267 92.618C115.33 92.1763 115.33 91.8609 115.14 91.6716C114.951 91.4823 114.699 91.4192 114.384 91.4192C113.942 91.4192 113.501 91.5454 113.123 91.8609C112.744 92.1763 112.492 92.6811 112.303 93.312L111.483 97.2237H110.348L111.294 92.8703C111.357 92.4287 111.42 92.1132 111.357 91.8609C111.231 91.5454 110.979 91.4192 110.474 91.4192C110.033 91.4192 109.655 91.6085 109.213 91.924C108.772 92.2394 108.52 92.8703 108.33 93.6905L107.574 97.2237H106.439L107.889 90.536H109.024L108.835 91.4823C109.15 91.1669 109.465 90.9145 109.718 90.7883C110.159 90.536 110.6 90.4098 111.042 90.4098C111.546 90.4098 111.988 90.536 112.24 90.7883C112.366 90.9145 112.492 91.1669 112.618 91.4192C112.934 91.0407 113.312 90.7883 113.69 90.5991C114.069 90.4098 114.447 90.3467 114.888 90.3467C115.708 90.4729 116.276 90.7883 116.465 91.4192Z" fill="#0E1420"/>
<path d="M123.464 92.3023C123.59 91.6714 123.464 91.2298 123.023 90.9143C122.581 90.5988 122.014 90.4727 121.194 90.4727C120.5 90.4727 119.87 90.6619 119.302 90.9774C118.735 91.2928 118.356 91.8607 118.104 92.6809H119.176C119.302 92.3654 119.428 92.0499 119.618 91.9238C119.933 91.6083 120.374 91.419 120.942 91.419C121.446 91.419 121.825 91.4821 122.077 91.6714C122.329 91.8607 122.392 92.113 122.329 92.4916C122.266 92.6809 122.266 92.807 122.14 92.9332C122.014 93.1225 121.825 93.2487 121.572 93.2487L119.744 93.501C119.113 93.5641 118.546 93.8165 118.104 94.132C117.663 94.4474 117.348 94.9521 117.221 95.5831C117.095 96.1509 117.221 96.5925 117.537 96.9711C117.852 97.3496 118.293 97.5389 118.924 97.5389C119.428 97.5389 119.933 97.4127 120.437 97.2234C120.942 97.0342 121.32 96.7187 121.572 96.4663C121.572 96.7187 121.572 96.908 121.635 97.0972C121.761 97.3496 122.014 97.5389 122.392 97.5389C122.581 97.5389 122.707 97.5389 122.77 97.5389C122.833 97.5389 123.023 97.4758 123.212 97.4758L123.401 96.6556C123.338 96.6556 123.275 96.6556 123.212 96.6556C123.149 96.6556 123.086 96.6556 123.023 96.6556C122.896 96.6556 122.77 96.5925 122.77 96.5294C122.77 96.4663 122.707 96.3402 122.77 96.2771L123.464 92.3023ZM121.825 94.826C121.698 95.52 121.257 96.0247 120.563 96.3402C120.122 96.5294 119.744 96.5925 119.365 96.5925C119.05 96.5925 118.798 96.5294 118.609 96.3402C118.419 96.1509 118.356 95.8985 118.419 95.5831C118.483 95.1414 118.735 94.826 119.113 94.6367C119.365 94.5105 119.681 94.4474 120.059 94.3843L120.753 94.3212C120.942 94.3212 121.194 94.2581 121.383 94.1951C121.635 94.132 121.825 94.0689 121.951 94.0058L121.825 94.826Z" fill="#0E1420"/>
<path d="M126.617 96.4038C126.68 96.4038 126.743 96.4038 126.869 96.4038L126.68 97.2871C126.554 97.3502 126.428 97.3502 126.238 97.3502C126.112 97.3502 125.923 97.3502 125.797 97.3502C125.293 97.3502 124.914 97.224 124.788 96.9716C124.662 96.7193 124.662 96.3407 124.725 95.8991L125.671 91.4827H124.788L124.977 90.5363H125.86L126.238 88.6436H127.373L126.995 90.5363H128.067L127.878 91.4827H126.806L125.86 95.836C125.797 96.0883 125.86 96.2145 125.986 96.2776C126.049 96.3407 126.238 96.3407 126.428 96.3407C126.491 96.4669 126.554 96.4038 126.617 96.4038Z" fill="#0E1420"/>
<path d="M129.202 90.6621H130.337L128.95 97.2867H127.815L129.202 90.6621Z" fill="#0E1420"/>
<path d="M130.905 88.1387L130.59 89.4005H129.455L129.77 88.1387H130.905Z" fill="#0E1420"/>
<path d="M136.769 91.2934C136.327 90.7256 135.634 90.4102 134.751 90.4102C133.805 90.4102 132.922 90.7256 132.229 91.4196C131.535 92.1136 131.031 92.9969 130.778 94.1326C130.589 95.2051 130.652 96.0253 131.031 96.6562C131.409 97.2871 132.103 97.6026 133.048 97.6026C134.183 97.6026 135.066 97.224 135.697 96.53C136.39 95.836 136.832 94.9527 137.021 93.8802C137.399 92.6815 137.273 91.8613 136.769 91.2934ZM135.949 93.8171C135.823 94.5111 135.508 95.142 135.129 95.7098C134.751 96.2777 134.183 96.53 133.427 96.53C132.733 96.53 132.292 96.2777 132.103 95.836C131.913 95.3313 131.85 94.7635 132.039 94.0695C132.166 93.3124 132.481 92.6815 132.922 92.1767C133.364 91.672 133.868 91.4196 134.562 91.4196C135.318 91.4196 135.823 91.7351 136.012 92.366C136.075 92.7445 136.075 93.2493 135.949 93.8171Z" fill="#0E1420"/>
<path d="M144.146 91.4826C144.272 91.8611 144.209 92.3659 144.083 93.0599L143.201 97.3501H142.066L142.948 93.123C143.011 92.7444 143.074 92.3659 142.948 92.1135C142.822 91.6719 142.507 91.4826 142.002 91.4826C141.75 91.4826 141.498 91.4826 141.309 91.5457C140.994 91.6088 140.678 91.798 140.363 92.1135C140.111 92.3028 139.985 92.5551 139.859 92.8075C139.732 93.0599 139.669 93.3753 139.543 93.817L138.787 97.3501H137.652L139.039 90.6624H140.111L139.922 91.6088C140.3 91.2302 140.741 90.9148 141.12 90.7886C141.498 90.6624 141.939 90.5362 142.381 90.5362C143.39 90.4731 143.957 90.7886 144.146 91.4826Z" fill="#0E1420"/>
<path d="M154.803 94.3212C154.929 93.6272 154.992 93.1225 154.992 92.8701C154.992 92.4285 154.929 92.0499 154.803 91.6714C154.677 91.2928 154.361 91.0405 153.983 90.7881C153.605 90.5357 153.163 90.4727 152.659 90.4727C151.713 90.4727 150.893 90.7881 150.137 91.4821C149.443 92.1761 148.939 92.9963 148.686 94.132C148.434 95.2045 148.56 96.0878 149.002 96.6556C149.443 97.2865 150.074 97.5389 150.893 97.5389C151.209 97.5389 151.524 97.4758 151.839 97.4127C152.344 97.2865 152.848 97.0973 153.226 96.7187C153.479 96.5294 153.731 96.2771 153.92 95.9616C154.172 95.6462 154.298 95.3938 154.361 95.1414H153.226C153.1 95.4569 152.911 95.7092 152.659 95.8985C152.218 96.2771 151.713 96.4663 151.146 96.4663C150.515 96.4663 150.074 96.2771 149.884 95.8354C149.695 95.4569 149.632 94.8891 149.758 94.1951H154.803V94.3212ZM150.956 91.9869C151.398 91.6083 151.839 91.419 152.344 91.419C153.037 91.419 153.542 91.6714 153.731 92.2392C153.857 92.5547 153.857 92.9332 153.794 93.438H150.074C150.263 92.8701 150.515 92.3654 150.956 91.9869Z" fill="#0E1420"/>
<path d="M157.893 96.4039C157.956 96.4039 158.019 96.4039 158.145 96.4039L157.956 97.2872C157.83 97.3503 157.704 97.3503 157.515 97.3503C157.388 97.3503 157.199 97.3503 157.073 97.3503C156.569 97.3503 156.19 97.2241 156.064 96.9718C155.938 96.7194 155.938 96.3409 156.001 95.8992L156.947 91.4828H156.064L156.253 90.5364H157.136L157.451 89.1484L158.334 91.4828H158.145L157.199 95.8361C157.136 96.0885 157.199 96.2147 157.325 96.2778C157.388 96.3409 157.515 96.3409 157.767 96.3409C157.767 96.467 157.83 96.4039 157.893 96.4039Z" fill="#0E1420"/>
<path d="M173.467 91.5458H172.332L171.134 97.2872H169.999L171.197 91.5458H170.251L170.441 90.6625H171.386L171.639 89.59C171.765 89.1483 171.891 88.7698 172.08 88.5805C172.395 88.202 172.963 88.0127 173.72 88.0127C173.783 88.0127 173.846 88.0127 173.909 88.0127C173.972 88.0127 174.035 88.0127 174.161 88.0127L173.972 89.0222C173.846 89.0222 173.783 89.0222 173.72 89.0222C173.656 89.0222 173.593 89.0222 173.593 89.0222C173.278 89.0222 173.026 89.0853 172.9 89.2745C172.774 89.4638 172.648 89.9054 172.521 90.5995H173.656L173.467 91.5458Z" fill="#0E1420"/>
<path d="M176.809 91.5458H175.674L174.476 97.2872H173.341L174.539 91.5458H173.594L173.783 90.6625H174.729L174.981 89.59C175.107 89.1483 175.233 88.7698 175.422 88.5805C175.737 88.202 176.305 88.0127 177.062 88.0127C177.125 88.0127 177.188 88.0127 177.251 88.0127C177.314 88.0127 177.377 88.0127 177.503 88.0127L177.314 89.0222C177.188 89.0222 177.125 89.0222 177.062 89.0222C176.999 89.0222 176.936 89.0222 176.936 89.0222C176.62 89.0222 176.368 89.0853 176.242 89.2745C176.116 89.4638 175.99 89.9054 175.864 90.5995H176.999L176.809 91.5458Z" fill="#0E1420"/>
<path d="M182.989 94.3212C183.115 93.6272 183.178 93.1225 183.178 92.8701C183.178 92.4285 183.115 92.0499 182.989 91.6714C182.863 91.2928 182.548 91.0405 182.169 90.7881C181.791 90.5357 181.35 90.4727 180.845 90.4727C179.899 90.4727 179.08 90.7881 178.323 91.4821C177.629 92.1761 177.125 92.9963 176.873 94.132C176.62 95.2045 176.747 96.0878 177.188 96.6556C177.629 97.2865 178.26 97.5389 179.08 97.5389C179.395 97.5389 179.71 97.4758 180.025 97.4127C180.53 97.2865 181.034 97.0973 181.413 96.7187C181.665 96.5294 181.917 96.2771 182.106 95.9616C182.359 95.6462 182.485 95.3938 182.548 95.1414H181.602C181.476 95.4569 181.287 95.7092 181.034 95.8985C180.593 96.2771 180.089 96.4663 179.521 96.4663C178.89 96.4663 178.449 96.2771 178.26 95.8354C178.071 95.4569 178.008 94.8891 178.134 94.1951H182.989V94.3212ZM179.143 91.9869C179.584 91.6083 180.025 91.419 180.53 91.419C181.224 91.419 181.728 91.6714 181.917 92.2392C182.043 92.5547 182.043 92.9332 181.98 93.438H178.26C178.449 92.8701 178.764 92.3654 179.143 91.9869Z" fill="#0E1420"/>
<path d="M186.142 96.4038C186.205 96.4038 186.268 96.4038 186.394 96.4038L186.205 97.2871C186.079 97.3502 185.953 97.3502 185.764 97.3502C185.637 97.3502 185.448 97.3502 185.322 97.3502C184.818 97.3502 184.439 97.224 184.313 96.9716C184.187 96.7193 184.187 96.3407 184.25 95.8991L185.196 91.4827H184.313L184.502 90.5363H185.385L185.764 88.6436H186.898L186.52 90.5363H187.592L187.403 91.4827H186.331L185.385 95.8991C185.322 96.1514 185.385 96.2776 185.511 96.3407C185.574 96.4038 185.7 96.4038 185.953 96.4038C186.016 96.4669 186.079 96.4038 186.142 96.4038Z" fill="#0E1420"/>
<path d="M193.015 91.2934C193.204 91.672 193.267 92.0505 193.141 92.4922H192.069C192.132 92.2398 192.069 91.9874 191.943 91.7982C191.754 91.4827 191.312 91.3565 190.682 91.3565C190.24 91.3565 189.925 91.4196 189.673 91.6089C189.421 91.7982 189.295 91.9874 189.232 92.2398C189.169 92.5553 189.232 92.7445 189.484 92.9338C189.61 93.06 189.862 93.1231 190.177 93.1862L190.871 93.3755C191.628 93.5647 192.132 93.754 192.384 93.9433C192.763 94.2587 192.889 94.7004 192.763 95.2682C192.637 95.836 192.321 96.4039 191.754 96.7824C191.186 97.2241 190.493 97.4133 189.547 97.4133C188.538 97.4133 187.907 97.161 187.592 96.7193C187.277 96.2777 187.151 95.7099 187.277 95.0159H188.349C188.286 95.3944 188.349 95.6468 188.475 95.8991C188.664 96.2777 189.105 96.467 189.799 96.467C190.24 96.467 190.619 96.4039 190.934 96.2146C191.312 96.0253 191.502 95.7729 191.565 95.3944C191.628 95.0789 191.565 94.8897 191.312 94.7635C191.186 94.7004 190.871 94.5742 190.43 94.448L189.61 94.1957C189.042 94.0695 188.664 93.8802 188.475 93.754C188.034 93.4386 187.907 92.9969 188.034 92.4922C188.16 91.8613 188.475 91.3565 189.042 90.978C189.61 90.5994 190.24 90.4102 190.997 90.4102C192.069 90.4102 192.7 90.7256 193.015 91.2934Z" fill="#0E1420"/>
<path d="M202.726 95.3942C202.599 95.962 202.284 96.5298 201.717 96.9084C201.149 97.35 200.456 97.5393 199.51 97.5393C198.501 97.5393 197.87 97.2869 197.555 96.8453C197.24 96.4036 197.114 95.8358 197.24 95.1418H198.312C198.249 95.5204 198.312 95.7727 198.438 96.0251C198.627 96.4036 199.068 96.5929 199.825 96.5929C200.266 96.5929 200.645 96.5298 200.96 96.3405C201.338 96.1513 201.528 95.8989 201.591 95.5204C201.654 95.2049 201.591 95.0156 201.338 94.8894C201.212 94.8264 200.897 94.7002 200.456 94.574L199.636 94.3216C199.068 94.1954 198.69 94.0062 198.501 93.88C198.059 93.5645 197.933 93.1229 198.059 92.6182C198.186 91.9872 198.501 91.4825 199.068 91.104C199.636 90.7254 200.266 90.5361 201.023 90.5361C202.032 90.5361 202.726 90.8516 203.041 91.4194C203.23 91.798 203.293 92.1765 203.167 92.6182H202.095C202.158 92.3658 202.095 92.1134 201.969 91.9241C201.78 91.6087 201.338 91.4825 200.708 91.4825C200.266 91.4825 199.951 91.5456 199.699 91.7349C199.447 91.9241 199.321 92.1134 199.258 92.3658C199.194 92.6812 199.258 92.8705 199.51 93.0598C199.636 93.186 199.888 93.2491 200.203 93.3122L200.897 93.5014C201.654 93.6907 202.158 93.88 202.41 94.0693C202.789 94.3216 202.915 94.7633 202.726 95.3942Z" fill="#0E1420"/>
<path d="M209.914 91.2934C209.536 90.7256 208.905 90.4102 208.148 90.4102C207.644 90.4102 207.139 90.5363 206.761 90.7887C206.446 90.978 206.131 91.1673 205.878 91.4827L206.068 90.5994H204.933L202.978 99.9369H204.113L204.869 96.53C205.059 96.8455 205.248 97.0347 205.374 97.1609C205.689 97.3502 206.068 97.4764 206.572 97.4764C207.203 97.4764 207.833 97.2871 208.401 96.9086C209.283 96.2777 209.914 95.2682 210.229 93.754C210.418 92.7445 210.292 91.9243 209.914 91.2934ZM209.031 93.9433C208.842 94.8265 208.527 95.4575 208.085 95.8991C207.644 96.3407 207.139 96.53 206.635 96.53C205.878 96.53 205.374 96.2146 205.248 95.5205C205.185 95.142 205.185 94.7004 205.311 94.1956C205.437 93.5647 205.626 92.9969 205.878 92.6184C206.32 91.8613 206.95 91.4196 207.707 91.4196C208.464 91.4196 208.968 91.7982 209.094 92.5553C209.157 92.9338 209.094 93.3754 209.031 93.9433Z" fill="#0E1420"/>
<path d="M214.895 89.7158H214.013L215.337 87.9492H216.724L214.895 89.7158Z" fill="#0E1420"/>
<path d="M217.102 94.3212C217.229 93.6272 217.292 93.1225 217.292 92.8701C217.292 92.4285 217.229 92.0499 217.102 91.6714C216.976 91.2928 216.661 91.0405 216.283 90.7881C215.904 90.5357 215.463 90.4727 214.959 90.4727C214.013 90.4727 213.193 90.7881 212.436 91.4821C211.743 92.1761 211.238 92.9963 210.986 94.132C210.734 95.2045 210.86 96.0878 211.301 96.6556C211.743 97.2865 212.373 97.5389 213.256 97.5389C213.571 97.5389 213.887 97.4758 214.202 97.4127C214.706 97.2865 215.211 97.0973 215.589 96.7187C215.841 96.5294 216.094 96.2771 216.283 95.9616C216.535 95.6462 216.661 95.3938 216.724 95.1414H215.589C215.463 95.4569 215.274 95.7092 215.022 95.8985C214.58 96.2771 214.076 96.4663 213.508 96.4663C212.878 96.4663 212.436 96.2771 212.247 95.8354C212.058 95.4569 211.995 94.8891 212.121 94.1951H217.102V94.3212ZM213.319 91.9869C213.76 91.6083 214.202 91.419 214.706 91.419C215.4 91.419 215.904 91.6714 216.094 92.2392C216.22 92.5547 216.22 92.9332 216.157 93.438H212.436C212.562 92.8701 212.878 92.3654 213.319 91.9869Z" fill="#0E1420"/>
<path d="M223.597 90.9776C223.975 91.3562 224.165 91.9871 224.039 92.8704H222.967C222.967 92.4287 222.904 92.1133 222.714 91.8609C222.525 91.6086 222.21 91.4824 221.642 91.4824C220.949 91.4824 220.318 91.8609 219.877 92.5549C219.562 92.9966 219.372 93.5644 219.246 94.2584C219.12 94.9524 219.12 95.5202 219.309 95.9618C219.498 96.4035 219.877 96.6558 220.507 96.6558C220.949 96.6558 221.39 96.5297 221.705 96.2142C222.021 95.8988 222.336 95.5202 222.525 95.0155H223.597C223.282 95.8988 222.84 96.5297 222.273 96.9713C221.705 97.3498 221.012 97.6022 220.255 97.6022C219.372 97.6022 218.742 97.2868 218.363 96.6558C217.985 96.0249 217.859 95.2047 218.111 94.2584C218.363 93.0596 218.868 92.1764 219.562 91.5455C220.255 90.9146 221.075 90.536 221.958 90.536C222.651 90.4098 223.219 90.5991 223.597 90.9776Z" fill="#0E1420"/>
<path d="M225.678 90.6621H226.813L225.426 97.2867H224.228L225.678 90.6621Z" fill="#0E1420"/>
<path d="M227.317 88.1387L227.065 89.4005H225.93L226.182 88.1387H227.317Z" fill="#0E1420"/>
<path d="M233.434 92.3023C233.56 91.6714 233.434 91.2298 232.993 90.9143C232.551 90.5988 231.984 90.4727 231.164 90.4727C230.47 90.4727 229.84 90.6619 229.272 90.9774C228.705 91.2928 228.326 91.8607 228.074 92.6809H229.146C229.272 92.3654 229.398 92.0499 229.588 91.9238C229.903 91.6083 230.344 91.419 230.912 91.419C231.416 91.419 231.795 91.4821 232.047 91.6714C232.299 91.8607 232.362 92.113 232.299 92.4916C232.236 92.6809 232.236 92.807 232.11 92.9332C231.984 93.1225 231.795 93.2487 231.542 93.2487L229.714 93.501C229.083 93.5641 228.516 93.8165 228.074 94.132C227.633 94.4474 227.318 94.9521 227.191 95.5831C227.065 96.1509 227.191 96.5925 227.507 96.9711C227.822 97.3496 228.263 97.5389 228.894 97.5389C229.398 97.5389 229.903 97.4127 230.407 97.2234C230.912 97.0342 231.29 96.7187 231.542 96.4663C231.542 96.7187 231.542 96.908 231.605 97.0972C231.731 97.3496 231.984 97.5389 232.362 97.5389C232.488 97.5389 232.614 97.5389 232.74 97.5389C232.803 97.5389 232.993 97.4758 233.182 97.4758L233.371 96.6556C233.308 96.6556 233.245 96.6556 233.182 96.6556C233.119 96.6556 233.056 96.6556 232.993 96.6556C232.866 96.6556 232.74 96.5925 232.74 96.5294C232.74 96.4663 232.677 96.3402 232.74 96.2771L233.434 92.3023ZM231.795 94.826C231.668 95.52 231.227 96.0247 230.533 96.3402C230.092 96.5294 229.714 96.5925 229.335 96.5925C229.02 96.5925 228.768 96.5294 228.579 96.3402C228.389 96.1509 228.326 95.8985 228.389 95.5831C228.453 95.1414 228.705 94.826 229.083 94.6367C229.335 94.5105 229.651 94.4474 230.029 94.3843L230.723 94.3212C230.912 94.3212 231.164 94.2581 231.416 94.1951C231.668 94.132 231.858 94.0689 231.984 94.0058L231.795 94.826Z" fill="#0E1420"/>
<path d="M241.001 90.5992L239.613 97.2869H238.541L238.731 96.2775C238.541 96.5298 238.289 96.7191 238.037 96.9084C237.533 97.2869 236.965 97.4131 236.335 97.4131C235.389 97.4131 234.821 97.0977 234.569 96.4667C234.443 96.1513 234.443 95.6465 234.569 95.0787L235.515 90.5361H236.65L235.704 94.9525C235.641 95.268 235.641 95.5835 235.704 95.7727C235.83 96.1513 236.145 96.4036 236.713 96.4036C237.47 96.4036 238.1 96.0251 238.541 95.3311C238.794 94.9525 238.983 94.4478 239.109 93.8169L239.803 90.5361H241.001V90.5992Z" fill="#0E1420"/>
<path d="M245.099 93.8794L246.676 97.2863H245.289L244.154 94.7627L242.01 97.2863H240.559L243.649 93.8794L242.073 90.5986H243.586L244.595 92.9961L246.676 90.5986L248 90.6617L245.099 93.8794Z" fill="#0E1420"/>
<path d="M3.09035 88.3906C2.77507 89.0846 2.45979 89.5263 2.08145 89.7155C1.70311 89.9048 1.13561 90.031 0.315878 90.0941L0.126709 90.9774H2.20756L0.883383 97.2865H2.08145L3.97314 88.3906H3.09035Z" fill="#0E1420"/>
<path d="M12.2328 89.7792C11.9175 88.8329 11.1608 88.3281 10.0258 88.3281C8.76467 88.3281 7.69271 89.0221 6.93604 90.347C6.49464 91.1041 6.17936 91.9243 5.99019 92.9338C5.73797 94.2587 5.73797 95.2682 5.99019 96.0884C6.30547 97.0347 6.99909 97.4764 8.07105 97.4764C9.26912 97.4764 10.215 96.9086 11.0347 95.7729C11.5391 94.9527 11.9805 93.9433 12.2328 92.7445C12.485 91.5458 12.485 90.5363 12.2328 89.7792ZM10.9716 92.8707C10.6564 94.2587 10.278 95.2682 9.83662 95.7729C9.39523 96.2777 8.89078 96.53 8.26022 96.53C7.5666 96.53 7.12521 96.0884 6.99909 95.2682C6.93604 94.7004 6.99909 94.0064 7.18826 93.06C7.44049 91.8612 7.81882 90.9149 8.26022 90.284C8.70161 89.653 9.26912 89.3376 9.89968 89.3376C10.5933 89.3376 11.0347 89.653 11.1608 90.347C11.2869 90.978 11.2239 91.8612 10.9716 92.8707Z" fill="#0E1420"/>
<path d="M19.3582 89.7792C19.043 88.8329 18.2863 88.3281 17.1513 88.3281C15.8902 88.3281 14.8182 89.0221 14.0615 90.347C13.6201 91.1041 13.3049 91.9243 13.1157 92.9338C12.8635 94.2587 12.8635 95.2682 13.1157 96.0884C13.431 97.0347 14.1246 97.4764 15.1965 97.4764C16.3946 97.4764 17.3404 96.9086 18.1602 95.7729C18.6646 94.9527 19.106 93.9433 19.3582 92.7445C19.6105 91.5458 19.6105 90.5363 19.3582 89.7792ZM18.0971 92.8707C17.7818 94.2587 17.4035 95.2682 16.9621 95.7729C16.5207 96.2777 16.0163 96.53 15.3857 96.53C14.6921 96.53 14.2507 96.0884 14.1246 95.2682C14.0615 94.7004 14.1246 94.0064 14.3138 93.06C14.566 91.8612 14.9443 90.9149 15.3857 90.284C15.8271 89.653 16.3946 89.3376 17.0252 89.3376C17.7188 89.3376 18.1602 89.653 18.2863 90.347C18.3493 90.978 18.3493 91.8612 18.0971 92.8707Z" fill="#0E1420"/>
<path d="M29.9518 93.5651C29.6365 93.1235 29.1321 92.9342 28.5646 92.9342C27.934 92.9342 27.4295 93.1235 26.862 93.5651C26.3576 94.0067 26.0423 94.5115 25.9162 95.0793C25.7901 95.7102 25.9162 96.2149 26.2315 96.5935C26.5468 97.0351 27.0512 97.2244 27.6187 97.2244C28.2493 97.2244 28.7537 97.0351 29.3212 96.5935C29.8257 96.1519 30.141 95.6471 30.2671 95.0793C30.3932 94.5115 30.2671 94.0067 29.9518 93.5651ZM29.3843 95.1424C29.3212 95.5209 29.1321 95.7733 28.8168 96.0257C28.5015 96.278 28.1862 96.4042 27.8079 96.4042C27.4295 96.4042 27.1773 96.278 26.9882 96.0257C26.799 95.7733 26.7359 95.4578 26.799 95.1424C26.862 94.7638 27.0512 94.5115 27.3665 94.2591C27.6818 94.0067 27.9971 93.8806 28.3754 93.8806C28.7537 93.8806 29.006 94.0067 29.1951 94.2591C29.3843 94.4484 29.4473 94.7638 29.3843 95.1424ZM28.6276 88.3916L21.6914 97.5399H22.3851L29.3212 88.3916H28.6276ZM24.7812 89.2749C24.4659 88.8332 23.9615 88.644 23.394 88.644C22.7634 88.644 22.2589 88.8332 21.6914 89.2749C21.187 89.7165 20.8717 90.2212 20.7456 90.7891C20.6195 91.3569 20.7456 91.9247 21.0609 92.3033C21.3762 92.7449 21.8806 92.9342 22.4481 92.9342C23.0787 92.9342 23.5831 92.7449 24.1506 92.3033C24.6551 91.8616 24.9704 91.3569 25.0965 90.7891C25.1595 90.2212 25.0965 89.7165 24.7812 89.2749ZM24.1506 90.7891C24.0876 91.1676 23.8984 91.42 23.5831 91.6724C23.2678 91.9247 22.9526 92.0509 22.5742 92.0509C22.1959 92.0509 21.9437 91.9247 21.7545 91.6724C21.5653 91.42 21.5023 91.1045 21.5653 90.7891C21.6284 90.4105 21.8175 90.1582 22.1328 89.9058C22.4481 89.6534 22.7634 89.5272 23.1417 89.5272C23.5201 89.5272 23.7723 89.6534 23.9615 89.9058C24.2137 90.1582 24.2767 90.4736 24.1506 90.7891Z" fill="#0E1420"/>
<path d="M36.7618 92.4918C37.2032 91.7978 37.8337 91.4192 38.5273 91.4192C39.0318 91.4192 39.4101 91.5454 39.5993 91.7978C39.7885 92.0502 39.8515 92.4287 39.8515 92.8073H40.9235C40.9865 91.924 40.8604 91.2931 40.4821 90.9145C40.1037 90.536 39.5362 90.3467 38.7796 90.3467C37.8968 90.3467 37.077 90.6621 36.3834 91.3561C35.6898 91.9871 35.1854 92.9334 34.9331 94.0691C34.744 95.0155 34.807 95.8356 35.1854 96.4666C35.5637 97.0975 36.1943 97.4129 37.077 97.4129C37.8337 97.4129 38.5273 97.2237 39.0948 96.782C39.6624 96.3404 40.1037 95.7095 40.419 94.8262H39.3471C39.1579 95.3309 38.8426 95.7095 38.5273 96.0249C38.2121 96.2773 37.7707 96.4666 37.3293 96.4666C36.6987 96.4666 36.3204 96.2142 36.1312 95.7726C35.942 95.3309 35.942 94.7631 36.0681 94.0691C36.1943 93.5013 36.4465 92.9334 36.7618 92.4918Z" fill="#0E1420"/>
<path d="M43.0045 88.1387L42.7523 89.4005H43.8873L44.1395 88.1387H43.0045ZM42.5 90.6623L41.1128 97.35H42.2478L43.635 90.6623H42.5Z" fill="#0E1420"/>
<path d="M50.3189 91.4821C50.1298 90.8512 49.5623 90.4727 48.6164 90.4727C48.175 90.4727 47.7967 90.5358 47.3553 90.725C46.9139 90.9143 46.5986 91.1667 46.1572 91.5452L46.3464 90.5988H45.2744L43.8872 97.2865H45.0222L45.7789 93.7534C45.842 93.3118 45.9681 92.9963 46.0942 92.744C46.2203 92.4916 46.3464 92.3023 46.5986 92.0499C46.9139 91.7976 47.2292 91.6083 47.5445 91.4821C47.7336 91.419 47.9228 91.419 48.2381 91.419C48.7425 91.419 49.0578 91.6083 49.1839 92.0499C49.247 92.3023 49.247 92.6178 49.1839 93.0594L48.3011 97.2865H49.4362L50.3189 92.9963C50.382 92.3654 50.4451 91.7976 50.3189 91.4821Z" fill="#0E1420"/>
<path d="M55.6156 87.9492L54.2915 89.7789H55.1743L57.0029 87.9492H55.6156ZM57.3812 94.3215C57.5073 93.6275 57.5704 93.1227 57.5704 92.8704C57.5704 92.4287 57.5073 92.0502 57.3812 91.6716C57.2551 91.2931 56.9398 91.0407 56.5615 90.7883C56.1832 90.536 55.7418 90.4729 55.2373 90.4729C54.2915 90.4729 53.4717 90.7883 52.7151 91.4823C52.0215 92.1763 51.517 92.9965 51.2648 94.1322C51.0126 95.2047 51.1387 96.088 51.5801 96.6558C52.0215 97.2868 52.652 97.5391 53.4717 97.5391C53.787 97.5391 54.1023 97.476 54.4176 97.4129C54.922 97.2867 55.4265 97.0975 55.8048 96.7189C56.057 96.5297 56.3093 96.2773 56.4984 95.9618C56.7507 95.6464 56.8768 95.394 56.9398 95.1416H55.8048C55.6787 95.4571 55.4895 95.7095 55.2373 95.8987C54.7959 96.2773 54.2915 96.4666 53.724 96.4666C53.0934 96.4666 52.652 96.2773 52.4628 95.8356C52.2737 95.394 52.2106 94.8893 52.3367 94.1953H57.3812V94.3215ZM53.5348 91.9871C53.9762 91.6085 54.4176 91.4192 54.922 91.4192C55.6156 91.4192 56.1201 91.6716 56.3093 92.2394C56.4354 92.5549 56.4354 92.9334 56.3723 93.4382H52.652C52.8412 92.8704 53.1565 92.3656 53.5348 91.9871Z" fill="#0E1420"/>
<path d="M67.4703 90.6619C67.218 90.5357 66.9028 90.4727 66.5244 90.4727C66.083 90.4727 65.7047 90.5358 65.3263 90.725C64.948 90.9143 64.6327 91.1667 64.2544 91.5452C64.1913 91.2298 64.0652 91.0405 63.8761 90.9143C63.6238 90.6619 63.1824 90.5358 62.678 90.5358C62.2366 90.5358 61.7321 90.6619 61.3538 90.9143C61.1016 91.0405 60.7863 91.2928 60.471 91.6083L60.6602 90.6619H59.5252L58.1379 97.3496H59.273L60.0296 93.8165C60.2188 92.9332 60.5341 92.3654 60.9124 92.0499C61.3538 91.7345 61.7321 91.5452 62.1735 91.5452C62.6149 91.5452 62.9302 91.6714 63.0563 91.9869C63.1194 92.1761 63.1194 92.5547 62.9933 92.9963L62.0474 97.3496H63.1824L64.0022 93.438C64.1283 92.744 64.3805 92.2392 64.8219 91.9869C65.2002 91.6714 65.6416 91.5452 66.083 91.5452C66.3983 91.5452 66.6505 91.6083 66.8397 91.7976C67.0289 91.9869 67.0919 92.2392 66.9658 92.7439L65.9569 97.4127H67.155L68.1008 92.9332C68.1008 92.807 68.1639 92.6809 68.1639 92.5547L67.4703 90.6619Z" fill="#0E1420"/>
<path d="M69.0466 94.9521C68.9835 95.1414 68.8574 95.3307 68.8574 95.5831C68.7313 96.1509 68.8574 96.5925 69.1727 96.9711C69.3619 97.2234 69.6771 97.4127 70.0555 97.4758L69.0466 94.9521Z" fill="#0E1420"/>
<path d="M68.1638 92.4918L67.4702 90.6621C67.7855 90.8514 68.0377 91.1038 68.1008 91.4823C68.1638 91.7347 68.2269 92.0501 68.1638 92.4918Z" fill="#0E1420"/>
<path d="M75.1 92.3023C75.2261 91.6714 75.1 91.2298 74.6586 90.9143C74.2172 90.5988 73.6497 90.4727 72.83 90.4727C72.1364 90.4727 71.5058 90.6619 70.9383 90.9774C70.3708 91.2928 69.9925 91.8607 69.7402 92.6809H70.8122C70.9383 92.3654 71.0644 92.0499 71.2536 91.9238C71.5689 91.6083 72.0103 91.419 72.5778 91.419C73.0822 91.419 73.4606 91.4821 73.7128 91.6714C73.965 91.8607 74.0281 92.113 73.965 92.4916C73.902 92.6809 73.902 92.807 73.7758 92.9332C73.6497 93.1225 73.4606 93.2487 73.2083 93.2487L71.3797 93.501C70.7491 93.5641 70.1816 93.8165 69.7402 94.132C69.425 94.3212 69.2358 94.6367 69.0466 94.9521L69.9925 97.4758C70.1816 97.5389 70.3708 97.5389 70.56 97.5389C71.0644 97.5389 71.5689 97.4127 72.0733 97.2234C72.5147 97.0342 72.9561 96.7187 73.2083 96.4663C73.2083 96.7187 73.2083 96.908 73.2714 97.0972C73.3975 97.3496 73.6497 97.5389 74.0281 97.5389C74.1542 97.5389 74.2803 97.5389 74.4064 97.5389C74.4695 97.5389 74.6586 97.4758 74.8478 97.4758L75.037 96.6556C74.9739 96.6556 74.9109 96.6556 74.8478 96.6556C74.7847 96.6556 74.7217 96.6556 74.6586 96.6556C74.5325 96.6556 74.4064 96.5925 74.4064 96.5294C74.4064 96.4663 74.3434 96.3402 74.4064 96.2771L75.1 92.3023ZM73.4606 94.826C73.3345 95.52 72.8931 96.0247 72.1994 96.3402C71.758 96.5294 71.3797 96.5925 71.0014 96.5925C70.6861 96.5925 70.4339 96.5294 70.2447 96.3402C70.0555 96.1509 69.9925 95.8985 70.0555 95.5831C70.1186 95.1414 70.3708 94.826 70.7491 94.6367C71.0014 94.5105 71.3167 94.4474 71.695 94.3843L72.3886 94.3212C72.5778 94.3212 72.83 94.2581 73.0192 94.1951C73.2714 94.132 73.4606 94.0689 73.5867 94.0058L73.4606 94.826Z" fill="#0E1420"/>
<path d="M85.7564 88.0752L85.0628 91.4821C84.8736 91.1667 84.6845 90.9774 84.4953 90.8512C84.18 90.6619 83.8017 90.5358 83.2972 90.5358C82.3514 90.5358 81.5947 90.9143 80.9641 91.6083C80.3336 92.3023 79.8922 93.1856 79.703 94.132C79.4508 95.2045 79.5769 96.0247 79.9552 96.6556C80.3966 97.2865 80.9641 97.602 81.7208 97.602C82.1622 97.602 82.6036 97.5389 82.9819 97.3496C83.3603 97.1604 83.7386 96.8449 84.1169 96.4664L83.9278 97.4127H84.9367L86.8914 88.2014H85.7564V88.0752ZM84.5583 93.9427C84.3692 94.7629 84.0539 95.3938 83.6755 95.8985C83.2342 96.3402 82.7928 96.5925 82.2252 96.5925C81.5316 96.5925 81.0902 96.3402 80.9011 95.8985C80.7119 95.3938 80.6488 94.826 80.838 94.0689C81.0272 93.2487 81.3425 92.6178 81.7839 92.1761C82.2253 91.7345 82.7297 91.5452 83.2972 91.5452C83.8017 91.5452 84.18 91.7345 84.4322 92.1761C84.6844 92.4916 84.7475 93.1225 84.5583 93.9427Z" fill="#0E1420"/>
<path d="M88.72 88.1383L88.4047 89.5263H89.0983V89.5894V89.6525C89.0353 89.9679 88.9092 90.2203 88.783 90.4096C88.5939 90.5988 88.4047 90.7881 88.1525 90.7881L88.0264 91.3559C88.4678 91.2929 88.8461 91.1036 89.1614 90.725C89.4767 90.3465 89.6658 89.9048 89.7919 89.337L90.0442 88.0752H88.72V88.1383Z" fill="#0E1420"/>
<path d="M95.7194 92.3023C95.8455 91.6714 95.7194 91.2298 95.278 90.9143C94.8366 90.5988 94.2691 90.4727 93.4493 90.4727C92.7557 90.4727 92.1252 90.6619 91.5577 90.9774C90.9901 91.2928 90.6118 91.8607 90.3596 92.6809H91.4315C91.5577 92.3654 91.6838 92.0499 91.8729 91.9238C92.1882 91.6083 92.6296 91.419 93.1971 91.419C93.7016 91.419 94.0799 91.4821 94.3321 91.6714C94.5844 91.8607 94.6474 92.113 94.5844 92.4916C94.5213 92.6809 94.5213 92.807 94.3952 92.9332C94.2691 93.1225 94.0799 93.2487 93.8277 93.2487L91.999 93.501C91.3685 93.5641 90.801 93.8165 90.3596 94.132C89.9182 94.4474 89.6029 94.9521 89.4768 95.5831C89.3507 96.1509 89.4768 96.5925 89.7921 96.9711C90.1074 97.3496 90.5488 97.5389 91.1793 97.5389C91.6838 97.5389 92.1882 97.4127 92.6927 97.2234C93.1971 97.0342 93.5755 96.7187 93.8277 96.4663C93.8277 96.7187 93.8277 96.908 93.8907 97.0972C94.0168 97.3496 94.2691 97.5389 94.6474 97.5389C94.8366 97.5389 94.9627 97.5389 95.0257 97.5389C95.0888 97.5389 95.278 97.4758 95.4671 97.4758L95.6563 96.6556C95.5933 96.6556 95.5302 96.6556 95.4671 96.6556C95.4041 96.6556 95.341 96.6556 95.278 96.6556C95.1519 96.6556 95.0257 96.5925 95.0257 96.5294C95.0257 96.4663 94.9627 96.3402 95.0257 96.2771L95.7194 92.3023ZM94.0799 94.826C93.9538 95.52 93.5124 96.0247 92.8188 96.3402C92.3774 96.5294 91.999 96.5925 91.6207 96.5925C91.3054 96.5925 91.0532 96.5294 90.864 96.3402C90.6749 96.1509 90.6118 95.8985 90.6749 95.5831C90.7379 95.1414 90.9901 94.826 91.3685 94.6367C91.6207 94.5105 91.936 94.4474 92.3143 94.3843L93.0079 94.3212C93.1971 94.3212 93.4493 94.2581 93.6385 94.1951C93.8907 94.132 94.0799 94.0689 94.206 94.0058L94.0799 94.826Z" fill="#0E1420"/>
<path d="M102.908 91.4821C102.718 90.8512 102.151 90.4727 101.205 90.4727C100.764 90.4727 100.385 90.5358 99.944 90.725C99.5657 90.9143 99.1873 91.1667 98.7459 91.5452L98.9351 90.5988H97.8631L96.4128 97.2865H97.5479L98.3045 93.7534C98.3676 93.3118 98.4937 92.9963 98.6198 92.744C98.7459 92.4916 98.872 92.3023 99.1243 92.0499C99.4395 91.7976 99.7548 91.6083 100.07 91.4821C100.259 91.419 100.448 91.419 100.764 91.419C101.268 91.419 101.583 91.6083 101.71 92.0499C101.773 92.3023 101.773 92.6178 101.71 93.0594L100.827 97.2865H101.962L102.845 92.9963C103.034 92.3654 103.034 91.7976 102.908 91.4821Z" fill="#0E1420"/>
<path d="M105.556 88.1387L105.304 89.4005H106.439L106.691 88.1387H105.556ZM105.052 90.6623L103.665 97.35H104.8L106.187 90.6623H105.052Z" fill="#0E1420"/>
<path d="M116.465 91.419C116.276 90.7881 115.708 90.4727 114.825 90.4727C114.384 90.4727 114.006 90.5358 113.627 90.725C113.249 90.9143 112.934 91.1667 112.555 91.5452C112.492 91.2298 112.366 91.0405 112.177 90.9143C111.925 90.6619 111.483 90.5358 110.979 90.5358C110.537 90.5358 110.033 90.6619 109.655 90.9143C109.402 91.0405 109.087 91.2928 108.772 91.6083L108.961 90.6619H107.826L106.376 97.3496H107.511L108.267 93.8165C108.457 92.9332 108.772 92.3654 109.15 92.0499C109.592 91.7345 109.97 91.5452 110.411 91.5452C110.853 91.5452 111.168 91.6714 111.294 91.9869C111.357 92.1761 111.357 92.5547 111.231 92.9963L110.285 97.3496H111.42L112.24 93.438C112.366 92.744 112.618 92.2392 113.06 91.9869C113.438 91.6714 113.879 91.5452 114.321 91.5452C114.636 91.5452 114.888 91.6083 115.078 91.7976C115.267 91.9869 115.33 92.2392 115.204 92.7439L114.195 97.4127H115.393L116.339 92.9332C116.528 92.2392 116.528 91.7976 116.465 91.419Z" fill="#0E1420"/>
<path d="M123.464 92.3023C123.59 91.6714 123.464 91.2298 123.023 90.9143C122.581 90.5988 122.014 90.4727 121.194 90.4727C120.5 90.4727 119.87 90.6619 119.302 90.9774C118.735 91.2928 118.356 91.8607 118.104 92.6809H119.176C119.302 92.3654 119.428 92.0499 119.618 91.9238C119.933 91.6083 120.374 91.419 120.942 91.419C121.446 91.419 121.825 91.4821 122.077 91.6714C122.329 91.8607 122.392 92.113 122.329 92.4916C122.266 92.6809 122.266 92.807 122.14 92.9332C122.014 93.1225 121.825 93.2487 121.572 93.2487L119.744 93.501C119.113 93.5641 118.546 93.8165 118.104 94.132C117.663 94.4474 117.348 94.9521 117.221 95.5831C117.095 96.1509 117.221 96.5925 117.537 96.9711C117.852 97.3496 118.293 97.5389 118.924 97.5389C119.428 97.5389 119.933 97.4127 120.437 97.2234C120.942 97.0342 121.32 96.7187 121.572 96.4663C121.572 96.7187 121.572 96.908 121.635 97.0972C121.761 97.3496 122.014 97.5389 122.392 97.5389C122.581 97.5389 122.707 97.5389 122.77 97.5389C122.833 97.5389 123.023 97.4758 123.212 97.4758L123.401 96.6556C123.338 96.6556 123.275 96.6556 123.212 96.6556C123.149 96.6556 123.086 96.6556 123.023 96.6556C122.896 96.6556 122.77 96.5925 122.77 96.5294C122.77 96.4663 122.707 96.3402 122.77 96.2771L123.464 92.3023ZM121.825 94.826C121.698 95.52 121.257 96.0247 120.563 96.3402C120.122 96.5294 119.744 96.5925 119.365 96.5925C119.05 96.5925 118.798 96.5294 118.609 96.3402C118.419 96.1509 118.356 95.8985 118.419 95.5831C118.483 95.1414 118.735 94.826 119.113 94.6367C119.365 94.5105 119.681 94.4474 120.059 94.3843L120.753 94.3212C120.942 94.3212 121.194 94.2581 121.383 94.1951C121.635 94.132 121.825 94.0689 121.951 94.0058L121.825 94.826Z" fill="#0E1420"/>
<path d="M126.806 91.5452H127.878L128.067 90.5988H126.995L127.374 88.7061H126.239L125.86 90.5988H124.977L124.788 91.5452H125.671L124.725 95.9616C124.662 96.4032 124.662 96.7187 124.788 97.0341C124.914 97.2865 125.23 97.4127 125.797 97.4127C125.986 97.4127 126.112 97.4127 126.239 97.4127C126.365 97.4127 126.491 97.3496 126.68 97.3496L126.869 96.4663C126.806 96.4663 126.68 96.4663 126.617 96.4663C126.554 96.4663 126.491 96.4663 126.428 96.4663C126.239 96.4663 126.112 96.4663 125.986 96.4032C125.86 96.3401 125.797 96.1509 125.86 95.9616L126.806 91.5452Z" fill="#0E1420"/>
<path d="M129.77 88.1387L129.517 89.4005H130.652L130.905 88.1387H129.77ZM129.202 90.6623L127.815 97.35H128.95L130.337 90.6623H129.202Z" fill="#0E1420"/>
<path d="M136.769 91.2925C136.328 90.7246 135.634 90.4092 134.751 90.4092C133.805 90.4092 132.923 90.7246 132.229 91.4186C131.535 92.1126 131.031 92.9959 130.779 94.1316C130.589 95.2041 130.652 96.0243 131.031 96.6552C131.409 97.2862 132.103 97.6016 133.049 97.6016C134.184 97.6016 135.066 97.2231 135.697 96.5291C136.391 95.835 136.832 94.9518 137.021 93.8792C137.4 92.6805 137.273 91.8603 136.769 91.2925ZM135.949 93.8161C135.823 94.5101 135.508 95.141 135.129 95.7089C134.751 96.2767 134.184 96.5291 133.427 96.5291C132.733 96.5291 132.292 96.2767 132.103 95.835C131.914 95.3303 131.851 94.7625 132.04 94.0685C132.166 93.3114 132.481 92.6805 132.923 92.1757C133.364 91.671 133.868 91.4186 134.562 91.4186C135.319 91.4186 135.823 91.7341 136.012 92.365C136.075 92.7436 136.075 93.2483 135.949 93.8161Z" fill="#0E1420"/>
<path d="M144.147 91.4821C143.957 90.8512 143.39 90.4727 142.444 90.4727C142.003 90.4727 141.624 90.5358 141.183 90.725C140.742 90.9143 140.426 91.1667 139.985 91.5452L140.174 90.5988H139.102L137.715 97.2865H138.85L139.607 93.7534C139.67 93.3118 139.796 92.9963 139.922 92.744C140.048 92.4916 140.174 92.3023 140.426 92.0499C140.742 91.7976 141.057 91.6083 141.372 91.4821C141.561 91.419 141.75 91.419 142.066 91.419C142.57 91.419 142.885 91.6083 143.012 92.0499C143.075 92.3023 143.075 92.6178 143.012 93.0594L142.129 97.2865H143.264L144.147 92.9963C144.273 92.3654 144.273 91.7976 144.147 91.4821Z" fill="#0E1420"/>
<path d="M154.803 94.3212C154.929 93.6272 154.992 93.1225 154.992 92.8701C154.992 92.4285 154.929 92.0499 154.803 91.6714C154.677 91.2928 154.362 91.0405 153.983 90.7881C153.605 90.5357 153.164 90.4727 152.659 90.4727C151.713 90.4727 150.894 90.7881 150.137 91.4821C149.443 92.1761 148.939 92.9963 148.687 94.132C148.434 95.2045 148.561 96.0878 149.002 96.6556C149.443 97.2865 150.074 97.5389 150.894 97.5389C151.209 97.5389 151.524 97.4758 151.839 97.4127C152.344 97.2865 152.848 97.0973 153.227 96.7187C153.479 96.5294 153.731 96.2771 153.92 95.9616C154.173 95.6462 154.299 95.3938 154.362 95.1414H153.227C153.101 95.4569 152.911 95.7092 152.659 95.8985C152.218 96.2771 151.713 96.4663 151.146 96.4663C150.515 96.4663 150.074 96.2771 149.885 95.8354C149.696 95.4569 149.633 94.8891 149.759 94.1951H154.803V94.3212ZM150.957 91.9869C151.398 91.6083 151.839 91.419 152.344 91.419C153.038 91.419 153.542 91.6714 153.731 92.2392C153.857 92.5547 153.857 92.9332 153.794 93.438H150.074C150.263 92.8701 150.515 92.3654 150.957 91.9869Z" fill="#0E1420"/>
<path d="M157.767 96.4668C157.578 96.4668 157.451 96.4668 157.325 96.4037C157.199 96.3407 157.136 96.1514 157.199 95.9621L158.145 91.6088H158.334L157.451 89.2744L157.136 90.6624H156.253L156.064 91.6088H156.947L156.001 96.0252C155.938 96.4668 155.938 96.7823 156.064 97.0977C156.19 97.3501 156.506 97.4763 157.073 97.4763C157.262 97.4763 157.388 97.4763 157.514 97.4763C157.641 97.4763 157.767 97.4132 157.956 97.4132L158.145 96.5299C158.082 96.5299 157.956 96.5299 157.893 96.5299C157.83 96.4037 157.767 96.4668 157.767 96.4668Z" fill="#0E1420"/>
<path d="M159.343 90.5992L159.154 91.5456H158.334L157.451 89.2112L157.577 88.7695H158.712L158.334 90.5992H159.343Z" fill="#0E1420"/>
<path d="M168.99 94.3222C169.116 93.6282 169.18 93.1235 169.18 92.8711C169.18 92.4295 169.116 92.0509 168.99 91.6724C168.864 91.2938 168.549 91.0415 168.171 90.7891C167.792 90.5367 167.351 90.4736 166.846 90.4736C165.901 90.4736 165.081 90.7891 164.324 91.4831C163.631 92.1771 163.126 92.9973 162.874 94.1329C162.622 95.2055 162.748 96.0888 163.189 96.6566C163.631 97.2875 164.261 97.5399 165.081 97.5399C165.396 97.5399 165.711 97.4768 166.027 97.4137C166.531 97.2875 167.036 97.0982 167.414 96.7197C167.666 96.5304 167.918 96.2781 168.108 95.9626C168.36 95.6471 168.486 95.3948 168.549 95.1424H167.414C167.288 95.4579 167.099 95.7102 166.846 95.8995C166.405 96.2781 165.901 96.4673 165.333 96.4673C164.703 96.4673 164.261 96.278 164.072 95.8364C163.883 95.4579 163.82 94.89 163.946 94.196H168.99V94.3222ZM165.144 91.9878C165.585 91.6093 166.027 91.42 166.531 91.42C167.225 91.42 167.729 91.6724 167.918 92.2402C168.045 92.5557 168.045 92.9342 167.981 93.4389H164.261C164.45 92.8711 164.766 92.3664 165.144 91.9878Z" fill="#0E1420"/>
<path d="M173.972 88.0127C173.909 88.0127 173.846 88.0127 173.783 88.0127C173.026 88.0127 172.458 88.202 172.143 88.5805C171.954 88.7698 171.828 89.1483 171.702 89.59L171.449 90.6625H170.504L170.314 91.5458H171.26L170.062 97.2872H171.197L172.395 91.5458H173.53L173.72 90.6625H172.585C172.711 89.9685 172.837 89.4638 172.963 89.3376C173.089 89.1483 173.278 89.0853 173.656 89.0853C173.72 89.0853 173.72 89.0853 173.783 89.0853C173.846 89.0853 173.909 89.0853 174.035 89.0853L174.224 88.0758C174.161 88.0127 174.035 88.0127 173.972 88.0127Z" fill="#0E1420"/>
<path d="M177.314 88.0127C177.251 88.0127 177.188 88.0127 177.125 88.0127C176.368 88.0127 175.8 88.202 175.485 88.5805C175.296 88.7698 175.17 89.1483 175.044 89.59L174.792 90.6625H173.846L173.657 91.5458H174.602L173.404 97.2872H174.539L175.737 91.5458H176.872L177.062 90.6625H175.927C176.053 89.9685 176.179 89.4638 176.305 89.3376C176.431 89.1483 176.62 89.0853 176.998 89.0853C177.062 89.0853 177.062 89.0853 177.125 89.0853C177.188 89.0853 177.251 89.0853 177.377 89.0853L177.566 88.0758C177.44 88.0127 177.377 88.0127 177.314 88.0127Z" fill="#0E1420"/>
<path d="M182.989 94.3222C183.115 93.6282 183.178 93.1235 183.178 92.8711C183.178 92.4295 183.115 92.0509 182.989 91.6724C182.863 91.2938 182.547 91.0415 182.169 90.7891C181.791 90.5367 181.349 90.4736 180.845 90.4736C179.899 90.4736 179.079 90.7891 178.322 91.4831C177.629 92.1771 177.124 92.9973 176.872 94.1329C176.62 95.2055 176.746 96.0888 177.187 96.6566C177.629 97.2875 178.259 97.5399 179.079 97.5399C179.394 97.5399 179.71 97.4768 180.025 97.4137C180.529 97.2875 181.034 97.0982 181.412 96.7197C181.664 96.5304 181.917 96.2781 182.106 95.9626C182.358 95.6471 182.484 95.3948 182.547 95.1424H181.601C181.475 95.4579 181.286 95.7102 181.034 95.8995C180.593 96.2781 180.088 96.4673 179.521 96.4673C178.89 96.4673 178.449 96.278 178.259 95.8364C178.07 95.4579 178.007 94.89 178.133 94.196H182.989V94.3222ZM179.142 91.9878C179.584 91.6093 180.025 91.42 180.529 91.42C181.223 91.42 181.728 91.6724 181.917 92.2402C182.043 92.5557 182.043 92.9342 181.98 93.4389H178.259C178.449 92.8711 178.764 92.3664 179.142 91.9878Z" fill="#0E1420"/>
<path d="M186.331 91.5461H187.403L187.592 90.5998H186.52L186.898 88.707H185.763L185.385 90.5998H184.502L184.313 91.5461H185.196L184.25 95.9625C184.187 96.4042 184.187 96.7196 184.313 97.0351C184.439 97.2874 184.755 97.4136 185.322 97.4136C185.511 97.4136 185.637 97.4136 185.763 97.4136C185.89 97.4136 186.016 97.3505 186.205 97.3505L186.394 96.4672C186.331 96.4672 186.205 96.4672 186.142 96.4672C186.079 96.4672 186.016 96.4672 185.953 96.4672C185.763 96.4672 185.637 96.4672 185.511 96.4042C185.385 96.3411 185.322 96.1518 185.385 95.9625L186.331 91.5461Z" fill="#0E1420"/>
<path d="M193.204 92.5557C193.33 92.114 193.267 91.7355 193.078 91.3569C192.763 90.7891 192.069 90.4736 191.06 90.4736C190.303 90.4736 189.61 90.6629 189.105 91.0415C188.538 91.42 188.223 91.9247 188.096 92.5557C187.97 93.0604 188.16 93.502 188.538 93.8175C188.79 94.0068 189.168 94.1329 189.673 94.2591L190.493 94.5115C190.934 94.6377 191.249 94.7639 191.375 94.827C191.628 94.9531 191.691 95.2055 191.628 95.4579C191.565 95.8364 191.312 96.0888 190.997 96.2781C190.619 96.4673 190.24 96.5304 189.862 96.5304C189.168 96.5304 188.727 96.3412 188.538 95.9626C188.412 95.7733 188.412 95.4579 188.412 95.0793H187.34C187.214 95.7733 187.34 96.2781 187.655 96.7828C187.97 97.2244 188.601 97.4768 189.61 97.4768C190.556 97.4768 191.249 97.2875 191.817 96.8459C192.384 96.4042 192.7 95.8995 192.826 95.3317C192.952 94.7008 192.826 94.2591 192.447 94.0068C192.195 93.8175 191.691 93.6282 190.934 93.4389L190.24 93.2497C189.925 93.1866 189.736 93.0604 189.547 92.9973C189.295 92.808 189.232 92.6188 189.295 92.3033C189.358 92.0509 189.484 91.7986 189.736 91.6724C189.988 91.4831 190.303 91.42 190.745 91.42C191.375 91.42 191.817 91.5462 192.006 91.8617C192.132 92.0509 192.195 92.3033 192.132 92.5557H193.204Z" fill="#0E1420"/>
<path d="M203.104 92.5547C203.23 92.113 203.167 91.7345 202.978 91.3559C202.662 90.7881 201.969 90.4727 200.96 90.4727C200.203 90.4727 199.51 90.6619 199.005 91.0405C198.438 91.419 198.122 91.9238 197.996 92.5547C197.87 93.0594 198.059 93.501 198.438 93.8165C198.69 94.0058 199.068 94.132 199.573 94.2581L200.392 94.5105C200.834 94.6367 201.149 94.7629 201.275 94.826C201.527 94.9522 201.59 95.2045 201.527 95.4569C201.464 95.8354 201.212 96.0878 200.897 96.2771C200.518 96.4664 200.14 96.5294 199.762 96.5294C199.068 96.5294 198.627 96.3402 198.375 95.9616C198.248 95.7723 198.248 95.4569 198.248 95.0783H197.177C197.05 95.7723 197.177 96.2771 197.492 96.7818C197.807 97.2234 198.438 97.4758 199.447 97.4758C200.392 97.4758 201.086 97.2865 201.653 96.8449C202.221 96.4033 202.536 95.8985 202.662 95.3307C202.788 94.6998 202.662 94.2581 202.284 94.0058C202.032 93.8165 201.527 93.6272 200.771 93.438L200.077 93.2487C199.762 93.1856 199.573 93.0594 199.383 92.9963C199.131 92.807 199.068 92.6178 199.131 92.3023C199.194 92.0499 199.32 91.7976 199.573 91.6714C199.825 91.4821 200.14 91.419 200.582 91.419C201.212 91.419 201.653 91.5452 201.843 91.8607C201.969 92.05 202.032 92.3023 201.969 92.5547H203.104Z" fill="#0E1420"/>
<path d="M209.914 91.2934C209.535 90.7256 208.905 90.4102 208.148 90.4102C207.644 90.4102 207.139 90.5363 206.761 90.7887C206.446 90.978 206.13 91.1673 205.878 91.4827L206.067 90.5994H204.932L202.978 99.9369H204.113L204.869 96.53C205.058 96.8455 205.248 97.0347 205.374 97.1609C205.689 97.3502 206.067 97.4764 206.572 97.4764C207.202 97.4764 207.833 97.2871 208.4 96.9086C209.283 96.2777 209.914 95.2682 210.229 93.754C210.418 92.7445 210.292 91.9243 209.914 91.2934ZM209.031 93.9433C208.842 94.8265 208.527 95.4575 208.085 95.8991C207.644 96.3407 207.139 96.53 206.635 96.53C205.878 96.53 205.374 96.2146 205.248 95.5205C205.185 95.142 205.185 94.7004 205.311 94.1956C205.437 93.5647 205.626 92.9969 205.878 92.6184C206.32 91.8613 206.95 91.4196 207.707 91.4196C208.463 91.4196 208.968 91.7982 209.094 92.5553C209.157 92.9338 209.094 93.3754 209.031 93.9433Z" fill="#0E1420"/>
<path d="M215.337 87.9492L214.012 89.7789H214.895L216.724 87.9492H215.337ZM217.102 94.3215C217.228 93.6275 217.291 93.1227 217.291 92.8704C217.291 92.4287 217.228 92.0502 217.102 91.6716C216.976 91.2931 216.661 91.0407 216.282 90.7883C215.904 90.536 215.463 90.4729 214.958 90.4729C214.012 90.4729 213.193 90.7883 212.436 91.4823C211.742 92.1763 211.238 92.9965 210.986 94.1322C210.734 95.2047 210.86 96.088 211.301 96.6558C211.742 97.2868 212.373 97.5391 213.256 97.5391C213.571 97.5391 213.886 97.476 214.202 97.4129C214.706 97.2867 215.21 97.0975 215.589 96.7189C215.841 96.5297 216.093 96.2773 216.282 95.9618C216.535 95.6464 216.661 95.394 216.724 95.1416H215.589C215.463 95.4571 215.274 95.7095 215.021 95.8987C214.58 96.2773 214.075 96.4666 213.508 96.4666C212.877 96.4666 212.436 96.2773 212.247 95.8356C212.058 95.4571 211.995 94.8893 212.121 94.1953H217.102V94.3215ZM213.319 91.9871C213.76 91.6085 214.202 91.4192 214.706 91.4192C215.4 91.4192 215.904 91.6716 216.093 92.2394C216.219 92.5549 216.219 92.9334 216.156 93.4382H212.436C212.562 92.8704 212.877 92.3656 213.319 91.9871Z" fill="#0E1420"/>
<path d="M219.94 92.4918C220.381 91.7978 221.011 91.4192 221.705 91.4192C222.21 91.4192 222.588 91.5454 222.777 91.7978C222.966 92.0502 223.029 92.4287 223.029 92.8073H224.101C224.164 91.924 224.038 91.2931 223.66 90.9145C223.282 90.536 222.714 90.3467 221.957 90.3467C221.075 90.3467 220.255 90.6621 219.561 91.3561C218.868 91.9871 218.363 92.9334 218.111 94.0691C217.922 95.0155 217.985 95.8356 218.363 96.4666C218.741 97.0975 219.372 97.4129 220.255 97.4129C221.011 97.4129 221.705 97.2237 222.273 96.782C222.84 96.3404 223.282 95.7095 223.597 94.8262H222.525C222.336 95.3309 222.02 95.7095 221.705 96.0249C221.39 96.2773 220.948 96.4666 220.507 96.4666C219.876 96.4666 219.498 96.2142 219.309 95.7726C219.12 95.3309 219.12 94.7631 219.246 94.0691C219.435 93.5013 219.624 92.9334 219.94 92.4918Z" fill="#0E1420"/>
<path d="M226.182 88.1387L225.93 89.4005H227.065L227.317 88.1387H226.182ZM225.678 90.6623L224.291 97.35H225.426L226.813 90.6623H225.678Z" fill="#0E1420"/>
<path d="M233.434 92.3023C233.56 91.6714 233.434 91.2298 232.992 90.9143C232.551 90.5988 231.983 90.4727 231.164 90.4727C230.47 90.4727 229.84 90.6619 229.272 90.9774C228.705 91.2928 228.326 91.8607 228.074 92.6809H229.146C229.272 92.3654 229.398 92.0499 229.587 91.9238C229.903 91.6083 230.344 91.419 230.912 91.419C231.416 91.419 231.794 91.4821 232.047 91.6714C232.299 91.8607 232.362 92.113 232.299 92.4916C232.236 92.6809 232.236 92.807 232.11 92.9332C231.983 93.1225 231.794 93.2487 231.542 93.2487L229.713 93.501C229.083 93.5641 228.515 93.8165 228.074 94.132C227.633 94.4474 227.317 94.9521 227.191 95.5831C227.065 96.1509 227.191 96.5925 227.506 96.9711C227.822 97.3496 228.263 97.5389 228.894 97.5389C229.398 97.5389 229.903 97.4127 230.407 97.2234C230.911 97.0342 231.29 96.7187 231.542 96.4663C231.542 96.7187 231.542 96.908 231.605 97.0972C231.731 97.3496 231.983 97.5389 232.362 97.5389C232.488 97.5389 232.614 97.5389 232.74 97.5389C232.803 97.5389 232.992 97.4758 233.182 97.4758L233.371 96.6556C233.308 96.6556 233.245 96.6556 233.182 96.6556C233.118 96.6556 233.055 96.6556 232.992 96.6556C232.866 96.6556 232.74 96.5925 232.74 96.5294C232.74 96.4663 232.677 96.3402 232.74 96.2771L233.434 92.3023ZM231.794 94.826C231.668 95.52 231.227 96.0247 230.533 96.3402C230.092 96.5294 229.713 96.5925 229.335 96.5925C229.02 96.5925 228.768 96.5294 228.578 96.3402C228.389 96.1509 228.326 95.8985 228.389 95.5831C228.452 95.1414 228.705 94.826 229.083 94.6367C229.335 94.5105 229.65 94.4474 230.029 94.3843L230.722 94.3212C230.911 94.3212 231.164 94.2581 231.416 94.1951C231.668 94.132 231.857 94.0689 231.983 94.0058L231.794 94.826Z" fill="#0E1420"/>
<path d="M239.866 90.5986L239.172 93.8794C239.046 94.5103 238.857 95.0781 238.604 95.3936C238.163 96.0876 237.596 96.4661 236.776 96.4661C236.208 96.4661 235.893 96.2768 235.767 95.8352C235.704 95.6459 235.704 95.3305 235.767 95.015L236.713 90.5986H235.578L234.632 95.1412C234.506 95.709 234.506 96.1507 234.632 96.5292C234.821 97.1601 235.452 97.4756 236.397 97.4756C237.028 97.4756 237.596 97.2863 238.1 96.9709C238.352 96.7816 238.604 96.5923 238.794 96.3399L238.604 97.3494H239.676L241.064 90.6617H239.866V90.5986Z" fill="#0E1420"/>
<path d="M248 90.6621H246.613L244.532 92.9965L243.523 90.6621H242.073L243.586 93.9429L240.496 97.3498H241.946L244.09 94.8262L245.225 97.3498H246.676L245.036 93.9429L248 90.6621Z" fill="#0E1420"/>
<defs>
<linearGradient id="paint0_linear_164_753" x1="188.642" y1="35.6359" x2="188.642" y2="0.163641" gradientUnits="userSpaceOnUse">
<stop stop-color="#BF1A00"/>
<stop offset="1" stop-color="#FF4343"/>
</linearGradient>
<linearGradient id="paint1_linear_164_753" x1="203.516" y1="35.6363" x2="203.516" y2="0.139801" gradientUnits="userSpaceOnUse">
<stop stop-color="#F76A1E"/>
<stop offset="1" stop-color="#F7B11E"/>
</linearGradient>
<linearGradient id="paint2_linear_164_753" x1="218.444" y1="35.6359" x2="218.444" y2="0.114052" gradientUnits="userSpaceOnUse">
<stop stop-color="#D4D600"/>
<stop offset="1" stop-color="#FFF36A"/>
</linearGradient>
</defs>
</svg>
