<svg width="136" height="51" viewBox="0 0 136 51" fill="none" xmlns="http://www.w3.org/2000/svg">
<rect width="136" height="51" fill="#FF4343"/>
<path d="M49.2624 16.96L53.8704 30.064L58.4304 16.96H61.9104L55.4544 34H52.2624L45.7824 16.96H49.2624ZM67.5845 34.24C66.2085 34.24 65.0245 33.944 64.0325 33.352C63.0565 32.744 62.3045 31.944 61.7765 30.952C61.2485 29.96 60.9845 28.888 60.9845 27.736C60.9845 26.568 61.2485 25.488 61.7765 24.496C62.3205 23.504 63.0805 22.712 64.0565 22.12C65.0485 21.512 66.2245 21.208 67.5845 21.208C68.9445 21.208 70.1125 21.512 71.0885 22.12C72.0805 22.712 72.8405 23.504 73.3685 24.496C73.8965 25.488 74.1605 26.568 74.1605 27.736C74.1605 28.888 73.8965 29.96 73.3685 30.952C72.8405 31.944 72.0805 32.744 71.0885 33.352C70.1125 33.944 68.9445 34.24 67.5845 34.24ZM64.2965 27.736C64.2965 28.472 64.4405 29.128 64.7285 29.704C65.0165 30.264 65.4085 30.704 65.9045 31.024C66.4005 31.344 66.9605 31.504 67.5845 31.504C68.1925 31.504 68.7445 31.344 69.2405 31.024C69.7365 30.688 70.1285 30.24 70.4165 29.68C70.7205 29.104 70.8725 28.448 70.8725 27.712C70.8725 26.992 70.7205 26.352 70.4165 25.792C70.1285 25.216 69.7365 24.768 69.2405 24.448C68.7445 24.112 68.1925 23.944 67.5845 23.944C66.9605 23.944 66.4005 24.112 65.9045 24.448C65.4085 24.768 65.0165 25.216 64.7285 25.792C64.4405 26.352 64.2965 27 64.2965 27.736ZM76.3312 19.672V16.48H79.5472V19.672H76.3312ZM76.3312 34V21.424H79.5472V34H76.3312ZM89.9364 24.208C88.9604 24.208 88.0884 24.4 87.3204 24.784C86.5524 25.152 86.0004 25.688 85.6644 26.392V34H82.4484V21.424H85.4004V24.112C85.8324 23.248 86.3924 22.568 87.0804 22.072C87.7844 21.576 88.5204 21.304 89.2884 21.256C89.6244 21.256 89.8404 21.264 89.9364 21.28V24.208Z" fill="#0E1420"/>
</svg>
