<svg width="325" height="126" viewBox="0 0 325 126" fill="none" xmlns="http://www.w3.org/2000/svg">
<g clip-path="url(#clip0_548_1731)">
<path d="M265.556 44.915H246.044L228.765 0.238675C231.411 0.238675 238.934 0.238675 248.277 0.15918L265.556 44.915Z" fill="url(#paint0_linear_548_1731)"/>
<path d="M285.067 44.9146H265.556L248.276 0.238281C254.312 0.238281 261.009 0.238281 267.788 0.238281L285.067 44.9146Z" fill="url(#paint1_linear_548_1731)"/>
<path d="M304.745 44.915H285.068L267.706 0.15918C274.568 0.15918 281.43 0.15918 287.3 0.15918L304.745 44.915Z" fill="url(#paint2_linear_548_1731)"/>
<path d="M0.0826761 21.5432C0.0826761 11.6063 4.29916 4.53123 11.4093 1.51041C13.7242 0.476972 16.3699 0 19.3462 0C30.5902 0 36.8736 6.04164 38.031 15.7401H28.3579C28.1099 10.3344 25.2989 7.55205 19.3462 7.55205C11.8227 7.55205 9.75578 13.4347 9.75578 21.4637V24.405C9.75578 32.0366 11.492 38.3167 19.2635 38.3167C25.2162 38.3167 28.1099 35.6934 28.4406 30.3672H38.031C37.4523 37.8397 33.2358 42.6095 26.9524 44.7558C24.7202 45.4713 22.1572 45.8688 19.3462 45.8688C9.42508 45.8688 3.8031 40.5426 1.32282 33.3085C0.413381 30.6852 0 27.7438 0 24.405V21.5432H0.0826761Z" fill="#FBFCF2"/>
<path d="M42.2476 0.635742H51.7553V45.3121H42.2476V0.635742Z" fill="#FBFCF2"/>
<path d="M56.6333 0.635742H66.2237L84.9085 30.049V0.635742H94.4163V45.3121H84.8259L66.3064 15.8988V45.3121H56.6333V0.635742Z" fill="#FBFCF2"/>
<path d="M99.377 0.635742H130.463V8.1083H108.967V18.7607H127.321V25.9947H108.967V37.919H130.546V45.3121H99.377V0.635742Z" fill="#FBFCF2"/>
<path d="M134.679 0.635742H147.246L159.234 33.0698L171.057 0.635742H183.624V45.3121H174.033V33.0698L174.943 12.0036L162.376 45.3121H155.844L143.278 12.0831L144.27 33.1493V45.3121H134.679V0.635742Z" fill="#FBFCF2"/>
<path d="M205.45 0.635742H214.297L231.659 45.3121H221.489L218.265 36.0906H201.482L198.34 45.3121H188.171L205.45 0.635742ZM215.702 28.6181L209.915 11.9241L204.127 28.6181H215.702Z" fill="#FBFCF2"/>
<path d="M0.0825195 52.3076H6.61394V85.6161H0.0825195V52.3076Z" fill="#FBFCF2"/>
<path d="M9.67285 73.8509C9.67285 68.2862 12.2358 64.3114 16.2869 62.642C17.6924 62.0856 19.2633 61.7676 21.0822 61.7676C28.275 61.7676 31.8301 66.3783 31.8301 73.2944V75.9972H16.2869C16.6176 79.0181 18.7672 81.0849 22.2396 81.0849C24.9679 81.0849 26.8695 80.0515 28.1096 78.4616L31.334 81.9594C29.4324 84.4237 26.3734 86.1726 21.8262 86.1726C15.9562 86.1726 12.1531 83.3108 10.5823 79.177C10.0036 77.8256 9.75553 76.3152 9.75553 74.8048V73.8509H9.67285ZM25.464 71.7045V71.148C25.464 68.4452 23.8931 66.7758 21.0822 66.7758C18.0231 66.7758 16.7003 69.0811 16.4523 71.625H25.464V71.7045Z" fill="#FBFCF2"/>
<path d="M42.2476 52.9434H72.507V60.4159H51.838V71.9427H70.1921V79.3358H51.838V97.6197H42.2476V52.9434Z" fill="#FBFCF2"/>
<path d="M76.3926 52.9434H107.479V60.4159H85.983V71.0683H104.337V78.3024H85.983V90.2267H107.561V97.6197H76.3926V52.9434Z" fill="#FBFCF2"/>
<path d="M120.542 83.5492C120.542 88.9549 124.097 90.9423 129.719 90.9423C133.687 90.9423 136.994 89.5909 136.994 85.8546C136.994 82.6748 135.01 81.4824 132.447 80.4489C131.29 79.972 129.802 79.4155 127.9 78.859C122.03 77.0306 116.243 74.7253 113.597 69.8761C112.853 68.4452 112.44 66.7757 112.44 64.7884C112.44 58.2698 117.235 54.772 122.609 53.2616C124.676 52.6256 126.991 52.3076 129.553 52.3076C137.325 52.3076 142.864 55.4874 145.345 60.5751C146.089 62.2445 146.585 64.0729 146.585 66.1398H137.077C137.077 61.7675 134.018 59.7007 129.388 59.7007C125.337 59.7007 122.03 61.1316 122.03 64.9474C122.03 66.3783 122.774 67.6502 124.345 68.6836C125.916 69.7171 128.231 70.5915 131.207 71.466C137.408 73.2944 143.278 75.7587 145.675 81.0054C146.337 82.4363 146.667 84.1057 146.667 85.9341C146.667 92.5322 142.286 95.9505 136.829 97.4609C134.762 98.0174 132.364 98.3354 129.802 98.3354C120.872 98.3354 114.176 94.5991 111.861 88.2395C111.365 86.888 111.117 85.3776 111.117 83.6287H120.542V83.5492Z" fill="#FBFCF2"/>
<path d="M150.057 52.9434H187.84V60.4159H173.62V97.6197H164.029V60.4159H150.057V52.9434Z" fill="#FBFCF2"/>
<path d="M191.809 52.9434H201.316V97.6197H191.809V52.9434Z" fill="#FBFCF2"/>
<path d="M215.867 52.9434L226.285 86.5699L236.784 52.9434H247.45L231.328 97.6197H221.324L205.202 52.9434H215.867Z" fill="#FBFCF2"/>
<path d="M265.142 52.9434H273.989L291.351 97.6197H281.181L277.957 88.4778H261.174L257.949 97.6197H247.78L265.142 52.9434ZM275.394 80.9257L269.607 64.2317L263.819 80.9257H275.394Z" fill="#FBFCF2"/>
<path d="M294.988 52.9434H304.579V90.1471H324.917V97.5402H294.988V52.9434Z" fill="#FBFCF2"/>
<path d="M3.88578 111.373H5.04325L2.56296 122.582H0.992114L2.72831 114.632H0L0.248028 113.519C1.32282 113.44 2.14958 113.281 2.56296 113.042C3.05902 112.804 3.4724 112.247 3.88578 111.373Z" fill="#FBFCF2"/>
<path d="M15.8739 113.121C15.4605 111.929 14.4684 111.293 12.9802 111.293C11.3267 111.293 9.9212 112.167 8.92909 113.837C8.35036 114.791 7.93697 115.824 7.68895 117.096C7.35824 118.766 7.35824 120.037 7.68895 121.071C8.10233 122.263 9.01176 122.82 10.4173 122.82C11.9881 122.82 13.2282 122.104 14.303 120.673C14.9644 119.64 15.5432 118.368 15.8739 116.858C16.2046 115.347 16.2046 114.075 15.8739 113.121ZM14.2204 117.017C13.807 118.766 13.3109 120.037 12.7322 120.673C12.1535 121.309 11.492 121.627 10.6653 121.627C9.75585 121.627 9.17712 121.071 9.01176 120.037C8.92909 119.322 9.01176 118.448 9.25979 117.255C9.5905 115.745 10.0866 114.552 10.6653 113.757C11.244 112.962 11.9881 112.565 12.8149 112.565C13.7243 112.565 14.303 112.962 14.4684 113.837C14.5511 114.632 14.4684 115.745 14.2204 117.017Z" fill="#FBFCF2"/>
<path d="M25.2162 113.121C24.8028 111.929 23.8107 111.293 22.3225 111.293C20.669 111.293 19.2635 112.167 18.2714 113.837C17.6926 114.791 17.2793 115.824 17.0312 117.096C16.7005 118.766 16.7005 120.037 17.0312 121.071C17.4446 122.263 18.3541 122.82 19.7595 122.82C21.3304 122.82 22.5705 122.104 23.6453 120.673C24.3067 119.64 24.8855 118.368 25.2162 116.858C25.5469 115.347 25.5469 114.075 25.2162 113.121ZM23.5627 117.017C23.1493 118.766 22.6532 120.037 22.0745 120.673C21.4957 121.309 20.8343 121.627 20.0076 121.627C19.0981 121.627 18.5194 121.071 18.3541 120.037C18.2714 119.322 18.3541 118.448 18.6021 117.255C18.9328 115.745 19.4288 114.552 20.0076 113.757C20.5863 112.962 21.3304 112.565 22.1572 112.565C23.0666 112.565 23.6453 112.962 23.8107 113.837C23.8934 114.632 23.8107 115.745 23.5627 117.017Z" fill="#FBFCF2"/>
<path d="M32.2438 112.485C31.8304 111.929 31.169 111.69 30.4249 111.69C29.5982 111.69 28.9368 111.929 28.1927 112.485C27.5313 113.042 27.1179 113.678 26.9525 114.393C26.7872 115.109 26.9525 115.824 27.3659 116.301C27.7793 116.858 28.4407 117.096 29.1848 117.096C30.0115 117.096 30.673 116.858 31.417 116.301C32.0785 115.745 32.4918 115.109 32.6572 114.393C32.8225 113.678 32.6572 113.042 32.2438 112.485ZM31.4997 114.393C31.417 114.87 31.169 115.188 30.7556 115.506C30.3423 115.824 29.9289 115.983 29.4328 115.983C28.9368 115.983 28.606 115.824 28.358 115.506C28.11 115.188 28.0273 114.791 28.11 114.393C28.1927 113.916 28.4407 113.598 28.8541 113.28C29.2675 112.962 29.6808 112.803 30.1769 112.803C30.673 112.803 31.0037 112.962 31.2517 113.28C31.4997 113.598 31.5824 113.996 31.4997 114.393Z" fill="#FBFCF2"/>
<path d="M38.2789 111.373L29.1018 122.9H28.1924L37.3694 111.373H38.2789Z" fill="#FBFCF2"/>
<path d="M39.1056 117.892C38.6922 117.335 38.0308 117.097 37.2867 117.097C36.46 117.097 35.7986 117.335 35.0545 117.892C34.3931 118.448 33.9797 119.084 33.8143 119.8C33.649 120.594 33.8143 121.23 34.2277 121.707C34.6411 122.264 35.3025 122.502 36.0466 122.502C36.8734 122.502 37.5348 122.264 38.2789 121.707C38.9403 121.151 39.3536 120.515 39.519 119.8C39.6843 119.084 39.519 118.448 39.1056 117.892ZM38.3615 119.879C38.2789 120.356 38.0308 120.674 37.6174 120.992C37.2041 121.31 36.7907 121.469 36.2946 121.469C35.7986 121.469 35.4679 121.31 35.2198 120.992C34.9718 120.674 34.8891 120.277 34.9718 119.879C35.0545 119.402 35.3025 119.084 35.7159 118.766C36.1293 118.448 36.5427 118.289 37.0387 118.289C37.5348 118.289 37.8655 118.448 38.1135 118.766C38.3615 119.005 38.4442 119.402 38.3615 119.879Z" fill="#FBFCF2"/>
<path d="M52.8302 114.632C53.3263 115.109 53.5743 115.904 53.4089 117.017H52.0035C52.0035 116.46 51.9208 116.063 51.6727 115.745C51.4247 115.427 51.0113 115.268 50.2673 115.268C49.3578 115.268 48.5311 115.745 47.9523 116.619C47.5389 117.176 47.2909 117.891 47.1256 118.766C46.9602 119.64 46.9602 120.356 47.2082 120.912C47.4563 121.468 47.9523 121.786 48.7791 121.786C49.3578 121.786 49.9365 121.627 50.3499 121.23C50.7633 120.833 51.1767 120.356 51.4247 119.72H52.8302C52.4168 120.833 51.8381 121.627 51.094 122.184C50.3499 122.661 49.4405 122.979 48.4484 122.979C47.2909 122.979 46.4641 122.581 45.9681 121.786C45.472 120.991 45.3067 119.958 45.6374 118.766C45.9681 117.255 46.6295 116.142 47.5389 115.347C48.4484 114.552 49.5232 114.075 50.6806 114.075C51.5901 113.916 52.3342 114.155 52.8302 114.632Z" fill="#FBFCF2"/>
<path d="M55.4761 114.234H56.9643L55.1454 122.581H53.6572L55.4761 114.234Z" fill="#FBFCF2"/>
<path d="M57.7082 111.055L57.3775 112.645H55.8066L56.22 111.055H57.7082Z" fill="#FBFCF2"/>
<path d="M65.8101 115.268C65.9754 115.745 65.8928 116.381 65.7274 117.255L64.5699 122.661H63.0818L64.2392 117.335C64.3219 116.858 64.4046 116.381 64.2392 116.063C64.0739 115.506 63.6605 115.268 62.9991 115.268C62.6684 115.268 62.3377 115.268 62.0897 115.347C61.6763 115.427 61.2629 115.665 60.8495 116.063C60.5188 116.301 60.3535 116.619 60.1881 116.937C60.0227 117.255 59.9401 117.653 59.7747 118.209L58.7826 122.661H57.2944L59.1133 114.234H60.5188L60.2708 115.427C60.7668 114.95 61.3456 114.552 61.8416 114.393C62.3377 114.234 62.9164 114.075 63.4951 114.075C64.818 113.996 65.5621 114.393 65.8101 115.268Z" fill="#FBFCF2"/>
<path d="M72.0935 113.042H70.936L72.6722 110.816H74.4911L72.0935 113.042Z" fill="#FBFCF2"/>
<path d="M75.07 118.845C75.2353 117.971 75.318 117.335 75.318 117.017C75.318 116.46 75.2353 115.983 75.07 115.507C74.9046 115.03 74.4912 114.712 73.9952 114.394C73.4991 114.076 72.9204 113.996 72.259 113.996C71.0188 113.996 69.9441 114.394 68.9519 115.268C68.0425 116.142 67.3811 117.176 67.0504 118.607C66.7197 119.958 66.885 121.071 67.4638 121.787C68.0425 122.582 68.8693 122.9 69.9441 122.9C70.3574 122.9 70.7708 122.82 71.1842 122.741C71.8456 122.582 72.507 122.343 73.0031 121.866C73.3338 121.628 73.6645 121.31 73.9125 120.912C74.2432 120.515 74.4086 120.197 74.4912 119.879H73.0031C72.8377 120.276 72.5897 120.594 72.259 120.833C71.6803 121.31 71.0188 121.548 70.2748 121.548C69.448 121.548 68.8693 121.31 68.6212 120.753C68.3732 120.197 68.2905 119.561 68.4559 118.686H75.07V118.845ZM70.0267 115.904C70.6055 115.427 71.1842 115.189 71.8456 115.189C72.755 115.189 73.4165 115.507 73.6645 116.222C73.8298 116.619 73.8298 117.096 73.7472 117.732H68.8693C69.1173 117.017 69.448 116.381 70.0267 115.904Z" fill="#FBFCF2"/>
<path d="M89.1249 116.54C89.1249 116.699 89.0422 116.858 89.0422 117.017L87.802 122.661H86.2312L87.554 116.779C87.6367 116.222 87.6367 115.825 87.3887 115.586C87.1406 115.348 86.8099 115.268 86.3965 115.268C85.8178 115.268 85.2391 115.427 84.743 115.825C84.247 116.222 83.9163 116.858 83.6682 117.653L82.5934 122.582H81.1053L82.3454 117.097C82.4281 116.54 82.5108 116.143 82.4281 115.825C82.2627 115.427 81.932 115.268 81.2706 115.268C80.6919 115.268 80.1958 115.507 79.6171 115.904C79.0384 116.302 78.7077 117.097 78.4596 118.13L77.4675 122.582H76.062L77.8809 114.155H79.3691L79.121 115.348C79.5344 114.95 79.9478 114.632 80.2785 114.473C80.8572 114.155 81.436 113.996 82.0147 113.996C82.6761 113.996 83.2548 114.155 83.5855 114.473C83.7509 114.632 83.9163 114.95 84.0816 115.268C84.495 114.791 84.991 114.473 85.4871 114.235C85.9832 113.996 86.4792 113.917 87.058 113.917C87.554 113.917 87.9674 113.996 88.2981 114.155L89.1249 116.54Z" fill="#FBFCF2"/>
<path d="M91.6054 122.82C91.1093 122.741 90.7786 122.502 90.4479 122.184C90.0346 121.708 89.8692 121.151 90.0346 120.436C90.1172 120.197 90.1999 119.879 90.2826 119.641L91.6054 122.82Z" fill="#FBFCF2"/>
<path d="M112.274 110.976L111.365 115.268C111.117 114.871 110.869 114.632 110.62 114.473C110.207 114.235 109.711 114.076 109.05 114.076C107.809 114.076 106.817 114.553 105.991 115.427C105.164 116.302 104.585 117.415 104.337 118.607C104.006 119.959 104.172 120.992 104.668 121.787C105.247 122.582 105.991 122.979 106.983 122.979C107.561 122.979 108.14 122.9 108.636 122.661C109.132 122.423 109.628 122.025 110.124 121.548L109.876 122.741H111.199L113.762 111.135H112.274V110.976ZM110.703 118.369C110.455 119.402 110.042 120.197 109.546 120.833C108.967 121.389 108.388 121.707 107.644 121.707C106.735 121.707 106.156 121.389 105.908 120.833C105.66 120.197 105.577 119.482 105.825 118.528C106.073 117.494 106.487 116.699 107.065 116.143C107.644 115.586 108.306 115.348 109.05 115.348C109.711 115.348 110.207 115.586 110.538 116.143C110.869 116.54 110.951 117.335 110.703 118.369Z" fill="#FBFCF2"/>
<path d="M117.565 112.645C117.4 113.281 117.152 113.917 116.739 114.394C116.325 114.871 115.829 115.11 115.25 115.189L115.416 114.474C115.747 114.394 115.995 114.235 116.243 113.997C116.491 113.679 116.573 113.361 116.656 113.043V112.963V112.884H115.747L116.16 111.135H117.896L117.565 112.645Z" fill="#FBFCF2"/>
<path d="M125.337 116.301C125.503 115.507 125.337 114.95 124.758 114.553C124.18 114.155 123.436 113.996 122.361 113.996C121.451 113.996 120.625 114.235 119.881 114.632C119.136 115.03 118.64 115.745 118.31 116.778H119.715C119.881 116.381 120.046 115.983 120.294 115.824C120.707 115.427 121.286 115.189 122.03 115.189C122.692 115.189 123.188 115.268 123.518 115.507C123.849 115.745 123.932 116.063 123.849 116.54C123.766 116.778 123.766 116.937 123.601 117.096C123.436 117.335 123.188 117.494 122.857 117.494L120.459 117.812C119.633 117.891 118.888 118.209 118.31 118.607C117.731 119.004 117.318 119.64 117.152 120.435C116.987 121.151 117.152 121.707 117.566 122.184C117.979 122.661 118.558 122.9 119.384 122.9C120.046 122.9 120.707 122.741 121.369 122.502C122.03 122.264 122.526 121.866 122.857 121.548C122.857 121.866 122.857 122.105 122.94 122.343C123.105 122.661 123.436 122.9 123.932 122.9C124.18 122.9 124.345 122.9 124.428 122.9C124.51 122.9 124.758 122.82 125.006 122.82L125.255 121.787C125.172 121.787 125.089 121.787 125.006 121.787C124.924 121.787 124.841 121.787 124.758 121.787C124.593 121.787 124.428 121.707 124.428 121.628C124.428 121.548 124.345 121.389 124.428 121.31L125.337 116.301ZM123.188 119.481C123.022 120.356 122.444 120.992 121.534 121.389C120.955 121.628 120.459 121.707 119.963 121.707C119.55 121.707 119.219 121.628 118.971 121.389C118.723 121.151 118.64 120.833 118.723 120.435C118.806 119.879 119.136 119.481 119.633 119.243C119.963 119.084 120.377 119.004 120.873 118.925L121.782 118.845C122.03 118.845 122.361 118.766 122.609 118.686C122.94 118.607 123.188 118.527 123.353 118.448L123.188 119.481Z" fill="#FBFCF2"/>
<path d="M134.762 115.268C134.928 115.745 134.845 116.381 134.68 117.255L133.522 122.661H132.034L133.191 117.335C133.274 116.858 133.357 116.381 133.191 116.063C133.026 115.506 132.613 115.268 131.951 115.268C131.621 115.268 131.29 115.268 131.042 115.347C130.628 115.427 130.215 115.665 129.802 116.063C129.471 116.301 129.306 116.619 129.14 116.937C128.975 117.255 128.892 117.653 128.727 118.209L127.735 122.661H126.247L128.148 114.234H129.554L129.306 115.427C129.802 114.95 130.38 114.552 130.876 114.393C131.372 114.155 131.951 114.075 132.53 114.075C133.77 113.996 134.514 114.393 134.762 115.268Z" fill="#FBFCF2"/>
<path d="M137.573 114.234H139.061L137.16 122.581H135.671L137.573 114.234Z" fill="#FBFCF2"/>
<path d="M139.723 111.055L139.392 112.645H137.904L138.235 111.055H139.723Z" fill="#FBFCF2"/>
<path d="M152.455 115.188C152.62 115.665 152.538 116.222 152.372 116.937L151.132 122.581H149.644L150.967 116.699C151.049 116.142 151.049 115.745 150.801 115.506C150.553 115.268 150.223 115.188 149.809 115.188C149.231 115.188 148.652 115.347 148.156 115.745C147.66 116.142 147.329 116.778 147.081 117.573L146.006 122.502H144.518L145.758 117.017C145.841 116.46 145.924 116.063 145.841 115.745C145.675 115.347 145.345 115.188 144.683 115.188C144.105 115.188 143.609 115.427 143.03 115.824C142.451 116.222 142.12 117.017 141.872 118.05L140.88 122.502H139.392L141.294 114.075H142.782L142.534 115.268C142.947 114.87 143.361 114.552 143.691 114.393C144.27 114.075 144.849 113.916 145.427 113.916C146.089 113.916 146.668 114.075 146.998 114.393C147.164 114.552 147.329 114.87 147.494 115.188C147.908 114.711 148.404 114.393 148.9 114.155C149.396 113.916 149.892 113.837 150.471 113.837C151.545 113.996 152.29 114.393 152.455 115.188Z" fill="#FBFCF2"/>
<path d="M161.715 116.301C161.88 115.507 161.715 114.95 161.136 114.553C160.557 114.155 159.813 113.996 158.738 113.996C157.829 113.996 157.002 114.235 156.258 114.632C155.514 115.03 155.018 115.745 154.687 116.778H156.093C156.258 116.381 156.423 115.983 156.671 115.824C157.085 115.427 157.663 115.189 158.408 115.189C159.069 115.189 159.565 115.268 159.896 115.507C160.226 115.745 160.309 116.063 160.226 116.54C160.144 116.778 160.144 116.937 159.978 117.096C159.813 117.335 159.565 117.494 159.234 117.494L156.837 117.812C156.01 117.891 155.266 118.209 154.687 118.607C154.108 119.004 153.695 119.64 153.53 120.435C153.364 121.151 153.53 121.707 153.943 122.184C154.356 122.661 154.935 122.9 155.762 122.9C156.423 122.9 157.085 122.741 157.746 122.502C158.408 122.264 158.904 121.866 159.234 121.548C159.234 121.866 159.234 122.105 159.317 122.343C159.482 122.661 159.813 122.9 160.309 122.9C160.557 122.9 160.723 122.9 160.805 122.9C160.888 122.9 161.136 122.82 161.384 122.82L161.632 121.787C161.549 121.787 161.467 121.787 161.384 121.787C161.301 121.787 161.219 121.787 161.136 121.787C160.971 121.787 160.805 121.707 160.805 121.628C160.805 121.548 160.723 121.389 160.805 121.31L161.715 116.301ZM159.482 119.481C159.317 120.356 158.738 120.992 157.829 121.389C157.25 121.628 156.754 121.707 156.258 121.707C155.845 121.707 155.514 121.628 155.266 121.389C155.018 121.151 154.935 120.833 155.018 120.435C155.101 119.879 155.431 119.481 155.927 119.243C156.258 119.084 156.671 119.004 157.167 118.925L158.077 118.845C158.325 118.845 158.656 118.766 158.904 118.686C159.234 118.607 159.482 118.527 159.648 118.448L159.482 119.481Z" fill="#FBFCF2"/>
<path d="M165.849 121.468C165.931 121.468 166.014 121.468 166.179 121.468L165.931 122.581C165.766 122.661 165.601 122.661 165.353 122.661C165.187 122.661 164.939 122.661 164.774 122.661C164.112 122.661 163.616 122.502 163.451 122.184C163.286 121.866 163.286 121.389 163.368 120.832L164.608 115.268H163.451L163.699 114.075H164.856L165.353 111.69H166.841L166.345 114.075H167.75L167.502 115.268H166.097L164.856 120.753C164.774 121.071 164.856 121.23 165.022 121.309C165.104 121.389 165.353 121.389 165.601 121.389C165.683 121.548 165.766 121.468 165.849 121.468Z" fill="#FBFCF2"/>
<path d="M169.238 114.234H170.726L168.825 122.581H167.336L169.238 114.234Z" fill="#FBFCF2"/>
<path d="M171.388 111.055L171.057 112.645H169.569L169.9 111.055H171.388Z" fill="#FBFCF2"/>
<path d="M179.159 115.03C178.58 114.314 177.671 113.917 176.513 113.917C175.273 113.917 174.116 114.314 173.206 115.189C172.297 116.063 171.636 117.176 171.305 118.607C171.057 119.959 171.14 120.992 171.636 121.787C172.132 122.582 173.041 122.979 174.281 122.979C175.769 122.979 176.927 122.502 177.754 121.628C178.663 120.754 179.242 119.641 179.49 118.289C179.903 116.779 179.821 115.745 179.159 115.03ZM178.084 118.21C177.919 119.084 177.506 119.879 177.01 120.595C176.513 121.31 175.769 121.628 174.777 121.628C173.868 121.628 173.289 121.31 173.041 120.754C172.793 120.118 172.71 119.402 172.958 118.528C173.124 117.574 173.537 116.779 174.116 116.143C174.695 115.507 175.356 115.189 176.265 115.189C177.258 115.189 177.919 115.586 178.167 116.381C178.25 116.858 178.25 117.494 178.084 118.21Z" fill="#FBFCF2"/>
<path d="M188.832 115.268C188.997 115.745 188.915 116.381 188.749 117.255L187.592 122.661H186.104L187.261 117.335C187.344 116.858 187.427 116.381 187.261 116.063C187.096 115.506 186.682 115.268 186.021 115.268C185.69 115.268 185.36 115.268 185.112 115.347C184.698 115.427 184.285 115.665 183.871 116.063C183.541 116.301 183.375 116.619 183.21 116.937C183.045 117.255 182.962 117.653 182.797 118.209L181.805 122.661H180.316L182.135 114.234H183.541L183.293 115.427C183.789 114.95 184.368 114.552 184.864 114.393C185.36 114.234 185.938 114.075 186.517 114.075C187.84 113.996 188.584 114.393 188.832 115.268Z" fill="#FBFCF2"/>
<path d="M202.722 118.845C202.888 117.971 202.97 117.335 202.97 117.017C202.97 116.46 202.888 115.983 202.722 115.507C202.557 115.03 202.144 114.712 201.648 114.394C201.151 114.076 200.573 113.996 199.911 113.996C198.671 113.996 197.596 114.394 196.604 115.268C195.695 116.142 195.033 117.176 194.703 118.607C194.372 119.958 194.537 121.071 195.116 121.787C195.695 122.582 196.522 122.9 197.596 122.9C198.01 122.9 198.423 122.82 198.837 122.741C199.498 122.582 200.159 122.343 200.655 121.866C200.986 121.628 201.317 121.31 201.565 120.912C201.896 120.515 202.061 120.197 202.144 119.879H200.903C200.738 120.276 200.49 120.594 200.159 120.833C199.581 121.31 198.919 121.548 198.175 121.548C197.348 121.548 196.77 121.31 196.522 120.753C196.274 120.276 196.191 119.561 196.356 118.686H202.722V118.845ZM197.762 115.904C198.34 115.427 198.919 115.189 199.581 115.189C200.49 115.189 201.151 115.507 201.399 116.222C201.565 116.619 201.565 117.096 201.482 117.732H196.604C196.77 117.017 197.183 116.381 197.762 115.904Z" fill="#FBFCF2"/>
<path d="M206.856 121.469C206.939 121.469 207.021 121.469 207.187 121.469L206.939 122.582C206.773 122.662 206.608 122.662 206.36 122.662C206.194 122.662 205.946 122.662 205.781 122.662C205.12 122.662 204.624 122.503 204.458 122.185C204.293 121.867 204.293 121.39 204.376 120.833L205.616 115.268H204.458L204.706 114.076H205.864L206.277 112.327L207.435 115.268H207.187L205.864 120.833C205.781 121.151 205.864 121.31 206.029 121.39C206.112 121.469 206.277 121.469 206.608 121.469C206.69 121.549 206.773 121.469 206.856 121.469Z" fill="#FBFCF2"/>
<path d="M227.277 115.347H225.789L224.218 122.581H222.729L224.3 115.347H223.06L223.308 114.234H224.548L224.879 112.883C225.044 112.326 225.21 111.849 225.458 111.611C225.871 111.134 226.615 110.896 227.607 110.896C227.69 110.896 227.773 110.896 227.855 110.896C227.938 110.896 228.021 110.896 228.186 110.896L227.938 112.167C227.773 112.167 227.69 112.167 227.607 112.167C227.525 112.167 227.442 112.167 227.442 112.167C227.029 112.167 226.698 112.247 226.533 112.485C226.367 112.724 226.202 113.28 226.037 114.155H227.525L227.277 115.347Z" fill="#FBFCF2"/>
<path d="M231.659 115.347H230.171L228.6 122.581H227.112L228.683 115.347H227.443L227.691 114.234H228.931L229.261 112.883C229.427 112.326 229.592 111.849 229.84 111.611C230.253 111.134 230.998 110.896 231.99 110.896C232.072 110.896 232.155 110.896 232.238 110.896C232.32 110.896 232.403 110.896 232.568 110.896L232.32 112.167C232.155 112.167 232.072 112.167 231.99 112.167C231.907 112.167 231.824 112.167 231.824 112.167C231.411 112.167 231.08 112.247 230.915 112.485C230.75 112.724 230.584 113.28 230.419 114.155H231.907L231.659 115.347Z" fill="#FBFCF2"/>
<path d="M239.761 118.845C239.926 117.971 240.009 117.335 240.009 117.017C240.009 116.46 239.926 115.983 239.761 115.507C239.596 115.03 239.182 114.712 238.686 114.394C238.19 114.076 237.611 113.996 236.95 113.996C235.71 113.996 234.635 114.394 233.643 115.268C232.733 116.142 232.072 117.176 231.741 118.607C231.411 119.958 231.576 121.071 232.155 121.787C232.733 122.582 233.56 122.9 234.635 122.9C235.048 122.9 235.462 122.82 235.875 122.741C236.537 122.582 237.198 122.343 237.694 121.866C238.025 121.628 238.355 121.31 238.603 120.912C238.934 120.515 239.099 120.197 239.182 119.879H237.694C237.529 120.276 237.281 120.594 236.95 120.833C236.371 121.31 235.71 121.548 234.966 121.548C234.139 121.548 233.56 121.31 233.312 120.753C233.064 120.276 232.981 119.561 233.147 118.686H239.761V118.845ZM234.718 115.904C235.296 115.427 235.875 115.189 236.537 115.189C237.446 115.189 238.107 115.507 238.355 116.222C238.521 116.619 238.521 117.096 238.438 117.732H233.56C233.808 117.017 234.139 116.381 234.718 115.904Z" fill="#FBFCF2"/>
<path d="M243.894 121.468C243.977 121.468 244.06 121.468 244.225 121.468L243.977 122.581C243.812 122.661 243.646 122.661 243.398 122.661C243.233 122.661 242.985 122.661 242.82 122.661C242.158 122.661 241.662 122.502 241.497 122.184C241.331 121.866 241.331 121.389 241.414 120.832L242.654 115.268H241.414L241.662 114.075H242.82L243.316 111.69H244.804L244.308 114.075H245.713L245.465 115.268H244.06L242.82 120.753C242.737 121.071 242.82 121.23 242.985 121.309C243.068 121.389 243.233 121.389 243.564 121.389C243.729 121.548 243.812 121.468 243.894 121.468Z" fill="#FBFCF2"/>
<path d="M252.906 115.03C253.154 115.507 253.237 115.984 253.072 116.54H251.666C251.749 116.222 251.666 115.904 251.501 115.666C251.253 115.268 250.674 115.109 249.847 115.109C249.269 115.109 248.855 115.189 248.524 115.427C248.194 115.666 248.028 115.904 247.946 116.222C247.863 116.62 247.946 116.858 248.276 117.097C248.442 117.256 248.772 117.335 249.186 117.415L250.095 117.653C251.087 117.892 251.749 118.13 252.079 118.369C252.576 118.766 252.741 119.323 252.576 120.038C252.41 120.754 251.997 121.469 251.253 121.946C250.509 122.502 249.599 122.741 248.359 122.741C247.036 122.741 246.209 122.423 245.796 121.867C245.383 121.31 245.217 120.595 245.383 119.72H246.788C246.706 120.197 246.788 120.515 246.954 120.833C247.202 121.31 247.78 121.549 248.69 121.549C249.268 121.549 249.765 121.469 250.178 121.231C250.674 120.992 250.922 120.674 251.005 120.197C251.087 119.8 251.005 119.561 250.674 119.402C250.509 119.323 250.095 119.164 249.517 119.005L248.442 118.687C247.698 118.528 247.202 118.289 246.954 118.13C246.375 117.733 246.209 117.176 246.375 116.54C246.54 115.745 246.954 115.109 247.698 114.632C248.442 114.155 249.269 113.917 250.261 113.917C251.583 113.917 252.493 114.314 252.906 115.03Z" fill="#FBFCF2"/>
<path d="M265.639 120.196C265.474 120.912 265.06 121.627 264.316 122.104C263.572 122.661 262.663 122.899 261.423 122.899C260.1 122.899 259.273 122.581 258.86 122.025C258.446 121.468 258.281 120.753 258.446 119.878H259.852C259.769 120.355 259.852 120.673 260.017 120.991C260.265 121.468 260.844 121.707 261.836 121.707C262.415 121.707 262.911 121.627 263.324 121.389C263.82 121.15 264.068 120.832 264.151 120.355C264.234 119.958 264.151 119.719 263.82 119.56C263.655 119.481 263.241 119.322 262.663 119.163L261.588 118.845C260.844 118.686 260.348 118.447 260.1 118.288C259.521 117.891 259.356 117.335 259.521 116.699C259.686 115.904 260.1 115.268 260.844 114.791C261.588 114.314 262.415 114.075 263.407 114.075C264.73 114.075 265.639 114.473 266.052 115.188C266.3 115.665 266.383 116.142 266.218 116.699H264.812C264.895 116.381 264.812 116.063 264.647 115.824C264.399 115.427 263.82 115.268 262.993 115.268C262.415 115.268 262.001 115.347 261.671 115.586C261.34 115.824 261.174 116.063 261.092 116.381C261.009 116.778 261.092 117.017 261.423 117.255C261.588 117.414 261.919 117.493 262.332 117.573L263.241 117.811C264.234 118.05 264.895 118.288 265.226 118.527C265.639 118.845 265.804 119.401 265.639 120.196Z" fill="#FBFCF2"/>
<path d="M275.063 115.03C274.567 114.314 273.741 113.917 272.749 113.917C272.087 113.917 271.426 114.076 270.93 114.394C270.516 114.632 270.103 114.871 269.772 115.268L270.02 114.155H268.615L266.052 125.921H267.54L268.532 121.628C268.78 122.025 269.028 122.264 269.193 122.423C269.607 122.661 270.103 122.82 270.764 122.82C271.591 122.82 272.418 122.582 273.162 122.105C274.319 121.31 275.146 120.038 275.56 118.13C275.642 116.858 275.56 115.825 275.063 115.03ZM273.823 118.369C273.575 119.482 273.162 120.277 272.583 120.833C272.004 121.39 271.343 121.628 270.682 121.628C269.69 121.628 269.028 121.231 268.863 120.356C268.78 119.879 268.78 119.323 268.945 118.687C269.111 117.892 269.359 117.176 269.69 116.699C270.268 115.745 271.095 115.189 272.087 115.189C273.079 115.189 273.741 115.666 273.906 116.62C273.989 117.097 273.989 117.653 273.823 118.369Z" fill="#FBFCF2"/>
<path d="M281.513 113.042H280.438L282.092 110.816H283.91L281.513 113.042Z" fill="#FBFCF2"/>
<path d="M284.488 118.845C284.654 117.971 284.736 117.335 284.736 117.017C284.736 116.46 284.654 115.983 284.488 115.507C284.323 115.03 283.91 114.712 283.414 114.394C282.918 114.076 282.339 113.996 281.677 113.996C280.437 113.996 279.362 114.394 278.37 115.268C277.461 116.142 276.8 117.176 276.469 118.607C276.138 119.958 276.303 121.071 276.882 121.787C277.461 122.582 278.288 122.9 279.445 122.9C279.859 122.9 280.272 122.82 280.685 122.741C281.347 122.582 282.008 122.343 282.504 121.866C282.835 121.628 283.166 121.31 283.414 120.912C283.744 120.515 283.91 120.197 283.992 119.879H282.504C282.339 120.276 282.091 120.594 281.76 120.833C281.181 121.31 280.52 121.548 279.776 121.548C278.949 121.548 278.37 121.31 278.122 120.753C277.874 120.276 277.792 119.561 277.957 118.686H284.488V118.845ZM279.445 115.904C280.024 115.427 280.603 115.189 281.264 115.189C282.173 115.189 282.835 115.507 283.083 116.222C283.248 116.619 283.248 117.096 283.166 117.732H278.288C278.536 117.017 278.866 116.381 279.445 115.904Z" fill="#FBFCF2"/>
<path d="M293.005 114.632C293.501 115.109 293.749 115.904 293.583 117.017H292.178C292.178 116.46 292.095 116.063 291.847 115.745C291.599 115.427 291.186 115.268 290.442 115.268C289.532 115.268 288.705 115.745 288.127 116.619C287.713 117.176 287.465 117.891 287.3 118.766C287.135 119.64 287.135 120.356 287.383 120.912C287.631 121.468 288.127 121.786 288.953 121.786C289.532 121.786 290.111 121.627 290.524 121.23C290.938 120.833 291.351 120.356 291.599 119.72H293.005C292.591 120.833 292.012 121.627 291.268 122.184C290.524 122.661 289.615 122.979 288.623 122.979C287.465 122.979 286.638 122.581 286.142 121.786C285.646 120.991 285.481 119.958 285.812 118.766C286.142 117.255 286.804 116.142 287.713 115.347C288.623 114.552 289.697 114.075 290.855 114.075C291.764 113.916 292.508 114.155 293.005 114.632Z" fill="#FBFCF2"/>
<path d="M295.65 114.234H297.221L295.319 122.581H293.831L295.65 114.234Z" fill="#FBFCF2"/>
<path d="M297.882 111.055L297.552 112.645H296.063L296.394 111.055H297.882Z" fill="#FBFCF2"/>
<path d="M305.902 116.301C306.067 115.507 305.902 114.95 305.323 114.553C304.745 114.155 304.001 113.996 302.926 113.996C302.016 113.996 301.19 114.235 300.445 114.632C299.701 115.03 299.205 115.745 298.875 116.778H300.28C300.445 116.381 300.611 115.983 300.859 115.824C301.272 115.427 301.851 115.189 302.595 115.189C303.256 115.189 303.752 115.268 304.083 115.507C304.414 115.745 304.497 116.063 304.414 116.54C304.331 116.778 304.331 116.937 304.166 117.096C304.001 117.335 303.752 117.494 303.422 117.494L301.024 117.812C300.197 117.891 299.453 118.209 298.875 118.607C298.296 119.004 297.883 119.64 297.717 120.435C297.552 121.151 297.717 121.707 298.131 122.184C298.544 122.661 299.123 122.9 299.949 122.9C300.611 122.9 301.272 122.741 301.934 122.502C302.595 122.264 303.091 121.866 303.422 121.548C303.422 121.866 303.422 122.105 303.504 122.343C303.67 122.661 304.001 122.9 304.497 122.9C304.662 122.9 304.827 122.9 304.993 122.9C305.075 122.9 305.323 122.82 305.571 122.82L305.819 121.787C305.737 121.787 305.654 121.787 305.571 121.787C305.489 121.787 305.406 121.787 305.323 121.787C305.158 121.787 304.993 121.707 304.993 121.628C304.993 121.548 304.91 121.389 304.993 121.31L305.902 116.301ZM303.67 119.481C303.504 120.356 302.926 120.992 302.016 121.389C301.438 121.628 300.942 121.707 300.445 121.707C300.032 121.707 299.701 121.628 299.453 121.389C299.205 121.151 299.123 120.833 299.205 120.435C299.288 119.879 299.619 119.481 300.115 119.243C300.445 119.084 300.859 119.004 301.355 118.925L302.264 118.845C302.512 118.845 302.843 118.766 303.174 118.686C303.504 118.607 303.752 118.527 303.918 118.448L303.67 119.481Z" fill="#FBFCF2"/>
<path d="M315.74 114.155L313.922 122.581H312.516L312.764 121.309C312.516 121.627 312.185 121.866 311.855 122.104C311.193 122.581 310.449 122.74 309.623 122.74C308.382 122.74 307.638 122.343 307.308 121.548C307.142 121.15 307.142 120.514 307.308 119.799L308.548 114.075H310.036L308.796 119.64C308.713 120.037 308.713 120.435 308.796 120.673C308.961 121.15 309.374 121.468 310.119 121.468C311.111 121.468 311.937 120.991 312.516 120.117C312.847 119.64 313.095 119.004 313.26 118.209L314.17 114.075H315.74V114.155Z" fill="#FBFCF2"/>
<path d="M321.114 118.289L323.264 122.582H321.362L319.874 119.402L317.063 122.582H315.244L319.295 118.289L317.228 114.155H319.13L320.535 117.176L323.181 114.155L325 114.235L321.114 118.289Z" fill="#FBFCF2"/>
<path d="M3.88578 111.372C3.4724 112.247 3.05902 112.803 2.56296 113.041C2.0669 113.28 1.32282 113.439 0.248028 113.518L0 114.631H2.72831L0.992114 122.581H2.56296L5.04325 111.372H3.88578Z" fill="#FBFCF2"/>
<path d="M15.8739 113.121C15.4605 111.929 14.4684 111.293 12.9802 111.293C11.3267 111.293 9.9212 112.167 8.92909 113.837C8.35036 114.791 7.93697 115.824 7.68895 117.096C7.35824 118.766 7.35824 120.037 7.68895 121.071C8.10233 122.263 9.01176 122.82 10.4173 122.82C11.9881 122.82 13.2282 122.104 14.303 120.673C14.9644 119.64 15.5432 118.368 15.8739 116.858C16.2046 115.347 16.2046 114.075 15.8739 113.121ZM14.2204 117.017C13.807 118.766 13.3109 120.037 12.7322 120.673C12.1535 121.309 11.492 121.627 10.6653 121.627C9.75585 121.627 9.17712 121.071 9.01176 120.037C8.92909 119.322 9.01176 118.448 9.25979 117.255C9.5905 115.745 10.0866 114.552 10.6653 113.757C11.244 112.962 11.9881 112.565 12.8149 112.565C13.7243 112.565 14.303 112.962 14.4684 113.837C14.5511 114.632 14.4684 115.745 14.2204 117.017Z" fill="#FBFCF2"/>
<path d="M25.2162 113.121C24.8028 111.929 23.8107 111.293 22.3225 111.293C20.669 111.293 19.2635 112.167 18.2714 113.837C17.6926 114.791 17.2793 115.824 17.0312 117.096C16.7005 118.766 16.7005 120.037 17.0312 121.071C17.4446 122.263 18.3541 122.82 19.7595 122.82C21.3304 122.82 22.5705 122.104 23.6453 120.673C24.3067 119.64 24.8855 118.368 25.2162 116.858C25.5469 115.347 25.5469 114.075 25.2162 113.121ZM23.5627 117.017C23.1493 118.766 22.6532 120.037 22.0745 120.673C21.4957 121.309 20.8343 121.627 20.0076 121.627C19.0981 121.627 18.5194 121.071 18.3541 120.037C18.2714 119.322 18.3541 118.448 18.6021 117.255C18.9328 115.745 19.4288 114.552 20.0076 113.757C20.5863 112.962 21.3304 112.565 22.1572 112.565C23.0666 112.565 23.6453 112.962 23.8107 113.837C23.8934 114.632 23.8107 115.745 23.5627 117.017Z" fill="#FBFCF2"/>
<path d="M39.1059 117.891C38.6925 117.334 38.0311 117.096 37.287 117.096C36.4603 117.096 35.7989 117.334 35.0548 117.891C34.3934 118.447 33.98 119.083 33.8146 119.799C33.6493 120.594 33.8146 121.229 34.228 121.706C34.6414 122.263 35.3028 122.501 36.0469 122.501C36.8737 122.501 37.5351 122.263 38.2792 121.706C38.9406 121.15 39.3539 120.514 39.5193 119.799C39.6847 119.083 39.5193 118.447 39.1059 117.891ZM38.3618 119.878C38.2792 120.355 38.0311 120.673 37.6177 120.991C37.2044 121.309 36.791 121.468 36.2949 121.468C35.7989 121.468 35.4682 121.309 35.2201 120.991C34.9721 120.673 34.8894 120.276 34.9721 119.878C35.0548 119.401 35.3028 119.083 35.7162 118.765C36.1296 118.447 36.543 118.288 37.039 118.288C37.5351 118.288 37.8658 118.447 38.1138 118.765C38.3618 119.004 38.4445 119.401 38.3618 119.878ZM37.3697 111.372L28.2753 122.899H29.1848L38.2792 111.372H37.3697ZM32.2438 112.485C31.8304 111.929 31.169 111.69 30.4249 111.69C29.5982 111.69 28.9368 111.929 28.1927 112.485C27.5313 113.041 27.1179 113.677 26.9525 114.393C26.7872 115.108 26.9525 115.824 27.3659 116.301C27.7793 116.857 28.4407 117.096 29.1848 117.096C30.0115 117.096 30.673 116.857 31.417 116.301C32.0784 115.744 32.4918 115.108 32.6572 114.393C32.8225 113.677 32.6572 113.041 32.2438 112.485ZM31.4997 114.393C31.417 114.87 31.169 115.188 30.7556 115.506C30.3422 115.824 29.9289 115.983 29.4328 115.983C28.9368 115.983 28.606 115.824 28.358 115.506C28.11 115.188 28.0273 114.79 28.11 114.393C28.1927 113.916 28.4407 113.598 28.8541 113.28C29.2675 112.962 29.6808 112.803 30.1769 112.803C30.673 112.803 31.0037 112.962 31.2517 113.28C31.4997 113.598 31.5824 113.995 31.4997 114.393Z" fill="#FBFCF2"/>
<path d="M47.952 116.54C48.5307 115.665 49.3575 115.188 50.2669 115.188C50.9283 115.188 51.4244 115.347 51.6724 115.665C51.9204 115.983 52.0031 116.46 52.0031 116.937H53.4086C53.4913 115.824 53.3259 115.029 52.8299 114.552C52.3338 114.075 51.5897 113.837 50.5976 113.837C49.4402 113.837 48.3654 114.234 47.4559 115.109C46.5465 115.904 45.8851 117.096 45.5544 118.527C45.3064 119.72 45.389 120.753 45.8851 121.548C46.3811 122.343 47.2079 122.74 48.3654 122.74C49.3575 122.74 50.2669 122.502 51.011 121.945C51.7551 121.389 52.3338 120.594 52.7472 119.481H51.3417C51.0937 120.117 50.6803 120.594 50.2669 120.991C49.8535 121.309 49.2748 121.548 48.6961 121.548C47.8693 121.548 47.3733 121.23 47.1252 120.674C46.8772 120.117 46.8772 119.402 47.0426 118.527C47.2906 117.812 47.6213 117.096 47.952 116.54Z" fill="#FBFCF2"/>
<path d="M56.2192 111.055L55.8885 112.645H57.3767L57.7074 111.055H56.2192ZM55.4751 114.234L53.6562 122.661H55.1444L56.9633 114.234H55.4751Z" fill="#FBFCF2"/>
<path d="M65.8099 115.268C65.5619 114.473 64.8178 113.996 63.5777 113.996C62.9989 113.996 62.5029 114.076 61.9241 114.314C61.3454 114.553 60.932 114.871 60.3533 115.348L60.6013 114.155H59.1958L57.377 122.582H58.8651L59.8572 118.13C59.9399 117.573 60.1053 117.176 60.2706 116.858C60.436 116.54 60.6013 116.301 60.932 115.983C61.3454 115.665 61.7588 115.427 62.1722 115.268C62.4202 115.189 62.6682 115.189 63.0816 115.189C63.743 115.189 64.1564 115.427 64.3218 115.983C64.4044 116.301 64.4044 116.699 64.3218 117.255L63.1643 122.582H64.4871L65.6446 117.176C65.8926 116.381 65.8926 115.665 65.8099 115.268Z" fill="#FBFCF2"/>
<path d="M72.6719 110.816L70.9357 113.122H72.0931L74.4907 110.816H72.6719ZM75.0695 118.845C75.2348 117.971 75.3175 117.335 75.3175 117.017C75.3175 116.461 75.2348 115.984 75.0695 115.507C74.9041 115.03 74.4907 114.712 73.9947 114.394C73.4986 114.076 72.9199 113.996 72.2585 113.996C71.0183 113.996 69.9436 114.394 68.9514 115.268C68.042 116.143 67.3806 117.176 67.0499 118.607C66.7192 119.958 66.8845 121.071 67.4633 121.787C68.042 122.582 68.8688 122.9 69.9436 122.9C70.3569 122.9 70.7703 122.82 71.1837 122.741C71.8451 122.582 72.5065 122.343 73.0026 121.866C73.3333 121.628 73.664 121.31 73.912 120.912C74.2427 120.515 74.4081 120.197 74.4907 119.879H73.0026C72.8372 120.276 72.5892 120.594 72.2585 120.833C71.6798 121.31 71.0183 121.548 70.2743 121.548C69.4475 121.548 68.8688 121.31 68.6207 120.753C68.3727 120.197 68.29 119.561 68.4554 118.686H75.0695V118.845ZM70.0262 115.904C70.605 115.427 71.1837 115.189 71.8451 115.189C72.7545 115.189 73.4159 115.507 73.664 116.222C73.8293 116.62 73.8293 117.097 73.7467 117.732H68.8688C69.1168 117.017 69.4475 116.381 70.0262 115.904Z" fill="#FBFCF2"/>
<path d="M88.2154 114.235C87.8847 114.076 87.4713 113.996 86.9753 113.996C86.3966 113.996 85.9005 114.076 85.4044 114.314C84.9084 114.553 84.495 114.871 83.9989 115.348C83.9163 114.95 83.7509 114.712 83.5029 114.553C83.1722 114.235 82.5934 114.076 81.932 114.076C81.3533 114.076 80.6919 114.235 80.1958 114.553C79.8651 114.712 79.4517 115.03 79.0384 115.427L79.2864 114.235H77.7982L76.062 122.582H77.5502L78.5423 118.13C78.7903 117.017 79.2037 116.301 79.6998 115.904C80.2785 115.507 80.7746 115.268 81.3533 115.268C81.932 115.268 82.3454 115.427 82.5108 115.824C82.5934 116.063 82.5934 116.54 82.4281 117.096L81.1879 122.582H82.6761L83.7509 117.653C83.9163 116.778 84.247 116.142 84.8257 115.824C85.3218 115.427 85.9005 115.268 86.4792 115.268C86.8926 115.268 87.2233 115.348 87.4713 115.586C87.7194 115.824 87.8021 116.142 87.6367 116.778L86.3139 122.661H87.8847L89.1249 117.017C89.1249 116.858 89.2076 116.699 89.2076 116.54L88.2154 114.235Z" fill="#FBFCF2"/>
<path d="M90.3646 119.641C90.2819 119.879 90.1166 120.118 90.1166 120.436C89.9512 121.151 90.1166 121.708 90.53 122.184C90.778 122.502 91.1914 122.741 91.6874 122.82L90.3646 119.641Z" fill="#FBFCF2"/>
<path d="M89.1253 116.541L88.2158 114.235C88.6292 114.474 88.9599 114.792 89.0426 115.269C89.2079 115.587 89.2079 115.984 89.1253 116.541Z" fill="#FBFCF2"/>
<path d="M98.3021 116.301C98.4675 115.507 98.3021 114.95 97.7234 114.553C97.1447 114.155 96.4006 113.996 95.3258 113.996C94.4164 113.996 93.5896 114.235 92.8455 114.632C92.1014 115.03 91.6054 115.745 91.2747 116.778H92.6802C92.8455 116.381 93.0109 115.983 93.2589 115.824C93.6723 115.427 94.251 115.189 94.9951 115.189C95.6565 115.189 96.1526 115.268 96.4833 115.507C96.814 115.745 96.8966 116.063 96.814 116.54C96.7313 116.778 96.7313 116.937 96.5659 117.096C96.4006 117.335 96.1526 117.494 95.8219 117.494L93.4242 117.812C92.5975 117.891 91.8534 118.209 91.2747 118.607C90.8613 118.845 90.6133 119.243 90.3652 119.64L91.6054 122.82C91.8534 122.9 92.1014 122.9 92.3495 122.9C93.0109 122.9 93.6723 122.741 94.3337 122.502C94.9124 122.264 95.4912 121.866 95.8219 121.548C95.8219 121.866 95.8219 122.105 95.9045 122.343C96.0699 122.661 96.4006 122.9 96.8966 122.9C97.062 122.9 97.2274 122.9 97.3927 122.9C97.4754 122.9 97.7234 122.82 97.9714 122.82L98.2195 121.787C98.1368 121.787 98.0541 121.787 97.9714 121.787C97.8888 121.787 97.8061 121.787 97.7234 121.787C97.5581 121.787 97.3927 121.707 97.3927 121.628C97.3927 121.548 97.31 121.389 97.3927 121.31L98.3021 116.301ZM96.1526 119.481C95.9872 120.356 95.4085 120.992 94.499 121.389C93.9203 121.628 93.4243 121.707 92.9282 121.707C92.5148 121.707 92.1841 121.628 91.9361 121.389C91.688 121.151 91.6054 120.833 91.6881 120.435C91.7707 119.879 92.1014 119.481 92.5975 119.243C92.9282 119.084 93.3416 119.004 93.8376 118.925L94.7471 118.845C94.9951 118.845 95.3258 118.766 95.5738 118.686C95.9045 118.607 96.1526 118.527 96.3179 118.448L96.1526 119.481Z" fill="#FBFCF2"/>
<path d="M112.275 110.976L111.365 115.268C111.117 114.871 110.869 114.632 110.621 114.473C110.208 114.235 109.712 114.076 109.05 114.076C107.81 114.076 106.818 114.553 105.991 115.427C105.164 116.302 104.586 117.415 104.338 118.607C104.007 119.959 104.172 120.992 104.668 121.787C105.247 122.582 105.991 122.979 106.983 122.979C107.562 122.979 108.141 122.9 108.637 122.661C109.133 122.423 109.629 122.025 110.125 121.548L109.877 122.741H111.2L113.763 111.135H112.275V110.976ZM110.704 118.369C110.456 119.402 110.042 120.197 109.546 120.833C108.967 121.389 108.389 121.707 107.645 121.707C106.735 121.707 106.156 121.389 105.908 120.833C105.66 120.197 105.578 119.482 105.826 118.528C106.074 117.494 106.487 116.699 107.066 116.143C107.645 115.586 108.306 115.348 109.05 115.348C109.712 115.348 110.208 115.586 110.538 116.143C110.869 116.54 110.952 117.335 110.704 118.369Z" fill="#FBFCF2"/>
<path d="M116.16 111.055L115.747 112.804H116.656V112.883V112.963C116.573 113.36 116.408 113.678 116.243 113.917C115.995 114.155 115.747 114.394 115.416 114.394L115.25 115.109C115.829 115.03 116.325 114.791 116.739 114.314C117.152 113.837 117.4 113.281 117.565 112.565L117.896 110.976H116.16V111.055Z" fill="#FBFCF2"/>
<path d="M125.337 116.301C125.503 115.507 125.337 114.95 124.758 114.553C124.18 114.155 123.436 113.996 122.361 113.996C121.451 113.996 120.625 114.235 119.881 114.632C119.136 115.03 118.64 115.745 118.31 116.778H119.715C119.881 116.381 120.046 115.983 120.294 115.824C120.707 115.427 121.286 115.189 122.03 115.189C122.692 115.189 123.188 115.268 123.518 115.507C123.849 115.745 123.932 116.063 123.849 116.54C123.766 116.778 123.766 116.937 123.601 117.096C123.436 117.335 123.188 117.494 122.857 117.494L120.459 117.812C119.633 117.891 118.888 118.209 118.31 118.607C117.731 119.004 117.318 119.64 117.152 120.435C116.987 121.151 117.152 121.707 117.566 122.184C117.979 122.661 118.558 122.9 119.384 122.9C120.046 122.9 120.707 122.741 121.369 122.502C122.03 122.264 122.526 121.866 122.857 121.548C122.857 121.866 122.857 122.105 122.94 122.343C123.105 122.661 123.436 122.9 123.932 122.9C124.18 122.9 124.345 122.9 124.428 122.9C124.51 122.9 124.758 122.82 125.006 122.82L125.254 121.787C125.172 121.787 125.089 121.787 125.006 121.787C124.924 121.787 124.841 121.787 124.758 121.787C124.593 121.787 124.428 121.707 124.428 121.628C124.428 121.548 124.345 121.389 124.428 121.31L125.337 116.301ZM123.188 119.481C123.022 120.356 122.443 120.992 121.534 121.389C120.955 121.628 120.459 121.707 119.963 121.707C119.55 121.707 119.219 121.628 118.971 121.389C118.723 121.151 118.64 120.833 118.723 120.435C118.806 119.879 119.136 119.481 119.633 119.243C119.963 119.084 120.377 119.004 120.873 118.925L121.782 118.845C122.03 118.845 122.361 118.766 122.609 118.686C122.94 118.607 123.188 118.527 123.353 118.448L123.188 119.481Z" fill="#FBFCF2"/>
<path d="M134.763 115.268C134.515 114.473 133.771 113.996 132.53 113.996C131.952 113.996 131.456 114.076 130.877 114.314C130.381 114.553 129.885 114.871 129.306 115.348L129.554 114.155H128.149L126.247 122.582H127.735L128.727 118.13C128.81 117.573 128.975 117.176 129.141 116.858C129.306 116.54 129.471 116.301 129.802 115.983C130.216 115.665 130.629 115.427 131.042 115.268C131.29 115.189 131.538 115.189 131.952 115.189C132.613 115.189 133.027 115.427 133.192 115.983C133.275 116.301 133.275 116.699 133.192 117.255L132.034 122.582H133.523L134.68 117.176C134.928 116.381 134.928 115.665 134.763 115.268Z" fill="#FBFCF2"/>
<path d="M138.235 111.055L137.904 112.645H139.393L139.723 111.055H138.235ZM137.574 114.234L135.755 122.661H137.243L139.062 114.234H137.574Z" fill="#FBFCF2"/>
<path d="M152.455 115.189C152.207 114.394 151.463 113.996 150.305 113.996C149.726 113.996 149.23 114.076 148.734 114.314C148.238 114.553 147.825 114.871 147.329 115.348C147.246 114.95 147.081 114.712 146.833 114.553C146.502 114.235 145.923 114.076 145.262 114.076C144.683 114.076 144.022 114.235 143.526 114.553C143.195 114.712 142.782 115.03 142.368 115.427L142.616 114.235H141.128L139.227 122.661H140.715L141.707 118.209C141.955 117.096 142.368 116.381 142.864 115.983C143.443 115.586 143.939 115.348 144.518 115.348C145.097 115.348 145.51 115.507 145.675 115.904C145.758 116.142 145.758 116.619 145.593 117.176L144.352 122.661H145.841L146.915 117.732C147.081 116.858 147.412 116.222 147.99 115.904C148.486 115.507 149.065 115.348 149.644 115.348C150.057 115.348 150.388 115.427 150.636 115.665C150.884 115.904 150.967 116.222 150.801 116.858L149.478 122.741H151.049L152.289 117.096C152.62 116.222 152.62 115.665 152.455 115.189Z" fill="#FBFCF2"/>
<path d="M161.715 116.301C161.88 115.507 161.715 114.95 161.136 114.553C160.557 114.155 159.813 113.996 158.738 113.996C157.829 113.996 157.002 114.235 156.258 114.632C155.514 115.03 155.018 115.745 154.687 116.778H156.093C156.258 116.381 156.423 115.983 156.671 115.824C157.085 115.427 157.663 115.189 158.408 115.189C159.069 115.189 159.565 115.268 159.896 115.507C160.226 115.745 160.309 116.063 160.226 116.54C160.144 116.778 160.144 116.937 159.978 117.096C159.813 117.335 159.565 117.494 159.234 117.494L156.837 117.812C156.01 117.891 155.266 118.209 154.687 118.607C154.108 119.004 153.695 119.64 153.53 120.435C153.364 121.151 153.53 121.707 153.943 122.184C154.356 122.661 154.935 122.9 155.762 122.9C156.423 122.9 157.085 122.741 157.746 122.502C158.408 122.264 158.904 121.866 159.234 121.548C159.234 121.866 159.234 122.105 159.317 122.343C159.482 122.661 159.813 122.9 160.309 122.9C160.557 122.9 160.723 122.9 160.805 122.9C160.888 122.9 161.136 122.82 161.384 122.82L161.632 121.787C161.549 121.787 161.467 121.787 161.384 121.787C161.301 121.787 161.219 121.787 161.136 121.787C160.971 121.787 160.805 121.707 160.805 121.628C160.805 121.548 160.723 121.389 160.805 121.31L161.715 116.301ZM159.482 119.481C159.317 120.356 158.738 120.992 157.829 121.389C157.25 121.628 156.754 121.707 156.258 121.707C155.845 121.707 155.514 121.628 155.266 121.389C155.018 121.151 154.935 120.833 155.018 120.435C155.101 119.879 155.431 119.481 155.927 119.243C156.258 119.084 156.671 119.004 157.167 118.925L158.077 118.845C158.325 118.845 158.656 118.766 158.904 118.686C159.234 118.607 159.482 118.527 159.648 118.448L159.482 119.481Z" fill="#FBFCF2"/>
<path d="M166.097 115.348H167.502L167.75 114.155H166.345L166.841 111.771H165.353L164.856 114.155H163.699L163.451 115.348H164.608L163.368 120.912C163.286 121.469 163.286 121.866 163.451 122.264C163.616 122.582 164.03 122.741 164.774 122.741C165.022 122.741 165.187 122.741 165.353 122.741C165.518 122.741 165.683 122.661 165.931 122.661L166.179 121.548C166.097 121.548 165.931 121.548 165.849 121.548C165.766 121.548 165.683 121.548 165.601 121.548C165.353 121.548 165.187 121.548 165.022 121.469C164.856 121.389 164.774 121.151 164.856 120.912L166.097 115.348Z" fill="#FBFCF2"/>
<path d="M169.9 111.055L169.57 112.645H171.058L171.388 111.055H169.9ZM169.239 114.234L167.42 122.661H168.908L170.727 114.234H169.239Z" fill="#FBFCF2"/>
<path d="M179.16 115.03C178.581 114.314 177.671 113.917 176.514 113.917C175.274 113.917 174.116 114.314 173.207 115.189C172.297 116.063 171.636 117.176 171.305 118.607C171.057 119.959 171.14 120.992 171.636 121.787C172.132 122.582 173.042 122.979 174.282 122.979C175.77 122.979 176.927 122.502 177.754 121.628C178.664 120.754 179.242 119.641 179.49 118.289C179.904 116.779 179.821 115.745 179.16 115.03ZM178.085 118.21C177.919 119.084 177.506 119.879 177.01 120.595C176.514 121.31 175.77 121.628 174.778 121.628C173.868 121.628 173.29 121.31 173.042 120.754C172.794 120.118 172.711 119.402 172.959 118.528C173.124 117.574 173.538 116.779 174.116 116.143C174.695 115.507 175.356 115.189 176.266 115.189C177.258 115.189 177.919 115.586 178.167 116.381C178.25 116.858 178.25 117.494 178.085 118.21Z" fill="#FBFCF2"/>
<path d="M188.833 115.268C188.585 114.473 187.841 113.996 186.601 113.996C186.022 113.996 185.526 114.076 184.947 114.314C184.368 114.553 183.955 114.871 183.376 115.348L183.624 114.155H182.219L180.4 122.582H181.888L182.88 118.13C182.963 117.573 183.128 117.176 183.294 116.858C183.459 116.54 183.624 116.301 183.955 115.983C184.368 115.665 184.782 115.427 185.195 115.268C185.443 115.189 185.691 115.189 186.105 115.189C186.766 115.189 187.179 115.427 187.345 115.983C187.427 116.301 187.427 116.699 187.345 117.255L186.187 122.582H187.675L188.833 117.176C188.916 116.381 188.998 115.665 188.833 115.268Z" fill="#FBFCF2"/>
<path d="M202.722 118.846C202.888 117.972 202.97 117.336 202.97 117.018C202.97 116.461 202.888 115.984 202.722 115.507C202.557 115.031 202.144 114.713 201.648 114.395C201.151 114.077 200.573 113.997 199.911 113.997C198.671 113.997 197.596 114.395 196.604 115.269C195.695 116.143 195.033 117.177 194.703 118.608C194.372 119.959 194.537 121.072 195.116 121.788C195.695 122.583 196.522 122.901 197.596 122.901C198.01 122.901 198.423 122.821 198.837 122.742C199.498 122.583 200.159 122.344 200.655 121.867C200.986 121.629 201.317 121.311 201.565 120.913C201.896 120.516 202.061 120.198 202.144 119.88H200.903C200.738 120.277 200.49 120.595 200.159 120.834C199.581 121.311 198.919 121.549 198.175 121.549C197.348 121.549 196.77 121.311 196.522 120.754C196.274 120.277 196.191 119.562 196.356 118.687H202.722V118.846ZM197.762 115.905C198.34 115.428 198.919 115.189 199.581 115.189C200.49 115.189 201.151 115.507 201.4 116.223C201.565 116.62 201.565 117.097 201.482 117.733H196.604C196.77 117.018 197.183 116.382 197.762 115.905Z" fill="#FBFCF2"/>
<path d="M206.608 121.549C206.36 121.549 206.195 121.549 206.029 121.469C205.864 121.39 205.781 121.151 205.864 120.913L207.104 115.428H207.352L206.195 112.486L205.781 114.235H204.624L204.376 115.428H205.533L204.293 120.992C204.21 121.549 204.21 121.946 204.376 122.344C204.541 122.662 204.954 122.821 205.699 122.821C205.947 122.821 206.112 122.821 206.277 122.821C206.443 122.821 206.608 122.741 206.856 122.741L207.104 121.628C207.021 121.628 206.856 121.628 206.773 121.628C206.773 121.469 206.691 121.549 206.608 121.549Z" fill="#FBFCF2"/>
<path d="M208.758 114.155L208.51 115.347H207.435L206.277 112.406L206.443 111.85H207.931L207.352 114.155H208.758Z" fill="#FBFCF2"/>
<path d="M221.407 118.845C221.572 117.971 221.655 117.335 221.655 117.017C221.655 116.46 221.572 115.983 221.407 115.507C221.241 115.03 220.828 114.712 220.332 114.394C219.836 114.076 219.257 113.996 218.596 113.996C217.356 113.996 216.281 114.394 215.289 115.268C214.379 116.142 213.718 117.176 213.387 118.607C213.057 119.958 213.222 121.071 213.801 121.787C214.379 122.582 215.206 122.9 216.281 122.9C216.694 122.9 217.108 122.82 217.521 122.741C218.182 122.582 218.844 122.343 219.34 121.866C219.671 121.628 220.001 121.31 220.249 120.912C220.58 120.515 220.745 120.197 220.828 119.879H219.34C219.175 120.276 218.927 120.594 218.596 120.833C218.017 121.31 217.356 121.548 216.612 121.548C215.785 121.548 215.206 121.31 214.958 120.753C214.71 120.276 214.627 119.561 214.793 118.686H221.407V118.845ZM216.364 115.904C216.942 115.427 217.521 115.189 218.182 115.189C219.092 115.189 219.753 115.507 220.001 116.222C220.167 116.619 220.167 117.096 220.084 117.732H215.206C215.454 117.017 215.785 116.381 216.364 115.904Z" fill="#FBFCF2"/>
<path d="M227.938 110.896C227.856 110.896 227.773 110.896 227.69 110.896C226.698 110.896 225.954 111.134 225.541 111.611C225.293 111.849 225.127 112.326 224.962 112.883L224.631 114.234H223.391L223.143 115.347H224.383L222.812 122.581H224.301L225.872 115.347H227.36L227.608 114.234H226.12C226.285 113.36 226.45 112.724 226.616 112.565C226.781 112.326 227.029 112.247 227.525 112.247C227.608 112.247 227.608 112.247 227.69 112.247C227.773 112.247 227.856 112.247 228.021 112.247L228.269 110.975C228.104 110.896 228.021 110.896 227.938 110.896Z" fill="#FBFCF2"/>
<path d="M232.32 110.896C232.238 110.896 232.155 110.896 232.072 110.896C231.08 110.896 230.336 111.134 229.923 111.611C229.675 111.849 229.509 112.326 229.344 112.883L229.013 114.234H227.773L227.525 115.347H228.765L227.194 122.581H228.683L230.253 115.347H231.742L231.99 114.234H230.501C230.667 113.36 230.832 112.724 230.997 112.565C231.163 112.326 231.411 112.247 231.907 112.247C231.99 112.247 231.99 112.247 232.072 112.247C232.155 112.247 232.238 112.247 232.403 112.247L232.651 110.975C232.486 110.896 232.403 110.896 232.32 110.896Z" fill="#FBFCF2"/>
<path d="M239.761 118.845C239.926 117.971 240.009 117.335 240.009 117.017C240.009 116.46 239.926 115.983 239.761 115.507C239.596 115.03 239.182 114.712 238.686 114.394C238.19 114.076 237.611 113.996 236.95 113.996C235.71 113.996 234.635 114.394 233.643 115.268C232.733 116.142 232.072 117.176 231.741 118.607C231.411 119.958 231.576 121.071 232.155 121.787C232.733 122.582 233.56 122.9 234.635 122.9C235.048 122.9 235.462 122.82 235.875 122.741C236.537 122.582 237.198 122.343 237.694 121.866C238.025 121.628 238.355 121.31 238.603 120.912C238.934 120.515 239.099 120.197 239.182 119.879H237.694C237.529 120.276 237.281 120.594 236.95 120.833C236.371 121.31 235.71 121.548 234.966 121.548C234.139 121.548 233.56 121.31 233.312 120.753C233.064 120.276 232.981 119.561 233.147 118.686H239.761V118.845ZM234.718 115.904C235.296 115.427 235.875 115.189 236.537 115.189C237.446 115.189 238.107 115.507 238.355 116.222C238.521 116.619 238.521 117.096 238.438 117.732H233.56C233.808 117.017 234.139 116.381 234.718 115.904Z" fill="#FBFCF2"/>
<path d="M244.142 115.347H245.548L245.796 114.154H244.391L244.887 111.77H243.398L242.902 114.154H241.745L241.497 115.347H242.654L241.414 120.911C241.331 121.468 241.331 121.865 241.497 122.263C241.662 122.581 242.076 122.74 242.82 122.74C243.068 122.74 243.233 122.74 243.398 122.74C243.564 122.74 243.729 122.66 243.977 122.66L244.225 121.547C244.142 121.547 243.977 121.547 243.894 121.547C243.812 121.547 243.729 121.547 243.646 121.547C243.398 121.547 243.233 121.547 243.068 121.468C242.902 121.388 242.82 121.15 242.902 120.911L244.142 115.347Z" fill="#FBFCF2"/>
<path d="M253.072 116.619C253.237 116.063 253.154 115.586 252.906 115.109C252.493 114.394 251.583 113.996 250.261 113.996C249.269 113.996 248.359 114.235 247.698 114.712C246.954 115.189 246.54 115.824 246.375 116.619C246.209 117.255 246.458 117.812 246.954 118.209C247.284 118.448 247.78 118.607 248.442 118.766L249.517 119.084C250.095 119.243 250.509 119.402 250.674 119.481C251.005 119.64 251.087 119.958 251.005 120.276C250.922 120.753 250.591 121.071 250.178 121.31C249.682 121.548 249.186 121.628 248.69 121.628C247.78 121.628 247.202 121.389 246.954 120.912C246.788 120.674 246.788 120.276 246.788 119.799H245.383C245.217 120.674 245.383 121.31 245.796 121.946C246.209 122.502 247.036 122.82 248.359 122.82C249.599 122.82 250.509 122.582 251.253 122.025C251.997 121.469 252.41 120.833 252.576 120.117C252.741 119.322 252.576 118.766 252.079 118.448C251.749 118.209 251.087 117.971 250.095 117.732L249.186 117.494C248.772 117.414 248.524 117.255 248.276 117.176C247.946 116.937 247.863 116.699 247.946 116.301C248.028 115.983 248.194 115.666 248.524 115.507C248.855 115.268 249.269 115.189 249.847 115.189C250.674 115.189 251.253 115.348 251.501 115.745C251.666 115.983 251.749 116.301 251.666 116.619H253.072Z" fill="#FBFCF2"/>
<path d="M266.135 116.619C266.3 116.063 266.217 115.586 265.969 115.109C265.556 114.394 264.647 113.996 263.324 113.996C262.332 113.996 261.422 114.235 260.761 114.712C260.017 115.189 259.603 115.824 259.438 116.619C259.273 117.255 259.521 117.812 260.017 118.209C260.347 118.448 260.843 118.607 261.505 118.766L262.58 119.084C263.158 119.243 263.572 119.402 263.737 119.481C264.068 119.64 264.151 119.958 264.068 120.276C263.985 120.753 263.654 121.071 263.241 121.31C262.745 121.548 262.249 121.628 261.753 121.628C260.843 121.628 260.265 121.389 259.934 120.912C259.769 120.674 259.769 120.276 259.769 119.799H258.363C258.198 120.674 258.363 121.31 258.777 121.946C259.19 122.502 260.017 122.82 261.34 122.82C262.58 122.82 263.489 122.582 264.233 122.025C264.977 121.469 265.391 120.833 265.556 120.117C265.721 119.322 265.556 118.766 265.06 118.448C264.729 118.209 264.068 117.971 263.076 117.732L262.166 117.494C261.753 117.414 261.505 117.255 261.257 117.176C260.926 116.937 260.843 116.699 260.926 116.301C261.009 115.983 261.174 115.666 261.505 115.507C261.836 115.348 262.249 115.189 262.828 115.189C263.654 115.189 264.233 115.348 264.481 115.745C264.647 115.983 264.729 116.301 264.647 116.619H266.135Z" fill="#FBFCF2"/>
<path d="M275.064 115.03C274.568 114.314 273.741 113.917 272.749 113.917C272.088 113.917 271.426 114.076 270.93 114.394C270.517 114.632 270.103 114.871 269.773 115.268L270.021 114.155H268.615L266.052 125.921H267.54L268.533 121.628C268.781 122.025 269.029 122.264 269.194 122.423C269.607 122.661 270.103 122.82 270.765 122.82C271.592 122.82 272.418 122.582 273.162 122.105C274.32 121.31 275.147 120.038 275.56 118.13C275.643 116.858 275.56 115.825 275.064 115.03ZM273.824 118.369C273.576 119.482 273.162 120.277 272.584 120.833C272.005 121.39 271.343 121.628 270.682 121.628C269.69 121.628 269.029 121.231 268.863 120.356C268.781 119.879 268.781 119.323 268.946 118.687C269.111 117.892 269.359 117.176 269.69 116.699C270.269 115.745 271.095 115.189 272.088 115.189C273.08 115.189 273.741 115.666 273.906 116.62C273.989 117.097 273.989 117.653 273.824 118.369Z" fill="#FBFCF2"/>
<path d="M282.091 110.816L280.355 113.122H281.513L283.91 110.816H282.091ZM284.489 118.845C284.654 117.971 284.737 117.335 284.737 117.017C284.737 116.461 284.654 115.984 284.489 115.507C284.324 115.03 283.91 114.712 283.414 114.394C282.918 114.076 282.339 113.996 281.678 113.996C280.438 113.996 279.363 114.394 278.371 115.268C277.461 116.143 276.8 117.176 276.469 118.607C276.139 119.958 276.304 121.071 276.883 121.787C277.461 122.582 278.288 122.9 279.446 122.9C279.859 122.9 280.272 122.82 280.686 122.741C281.347 122.582 282.009 122.343 282.505 121.866C282.835 121.628 283.166 121.31 283.414 120.912C283.745 120.515 283.91 120.197 283.993 119.879H282.505C282.339 120.276 282.091 120.594 281.761 120.833C281.182 121.31 280.52 121.548 279.776 121.548C278.95 121.548 278.371 121.31 278.123 120.753C277.875 120.276 277.792 119.561 277.958 118.686H284.489V118.845ZM279.446 115.904C280.024 115.427 280.603 115.189 281.265 115.189C282.174 115.189 282.835 115.507 283.083 116.222C283.249 116.62 283.249 117.097 283.166 117.732H278.288C278.536 117.017 278.867 116.381 279.446 115.904Z" fill="#FBFCF2"/>
<path d="M288.127 116.54C288.706 115.665 289.532 115.188 290.442 115.188C291.103 115.188 291.599 115.347 291.847 115.665C292.095 115.983 292.178 116.46 292.178 116.937H293.583C293.666 115.824 293.501 115.029 293.005 114.552C292.509 114.075 291.765 113.837 290.772 113.837C289.615 113.837 288.54 114.234 287.631 115.109C286.721 115.904 286.06 117.096 285.729 118.527C285.481 119.72 285.564 120.753 286.06 121.548C286.556 122.343 287.383 122.74 288.54 122.74C289.532 122.74 290.442 122.502 291.186 121.945C291.93 121.389 292.509 120.594 292.922 119.481H291.517C291.269 120.117 290.855 120.594 290.442 120.991C290.028 121.309 289.45 121.548 288.871 121.548C288.044 121.548 287.548 121.23 287.3 120.674C287.052 120.117 287.052 119.402 287.217 118.527C287.465 117.812 287.796 117.096 288.127 116.54Z" fill="#FBFCF2"/>
<path d="M296.394 111.055L296.063 112.645H297.551L297.882 111.055H296.394ZM295.65 114.234L293.831 122.661H295.319L297.138 114.234H295.65Z" fill="#FBFCF2"/>
<path d="M305.902 116.301C306.067 115.507 305.902 114.95 305.323 114.553C304.744 114.155 304 113.996 302.925 113.996C302.016 113.996 301.189 114.235 300.445 114.632C299.701 115.03 299.205 115.745 298.874 116.778H300.28C300.445 116.381 300.61 115.983 300.858 115.824C301.272 115.427 301.85 115.189 302.595 115.189C303.256 115.189 303.752 115.268 304.083 115.507C304.413 115.745 304.496 116.063 304.413 116.54C304.331 116.778 304.331 116.937 304.165 117.096C304 117.335 303.752 117.494 303.421 117.494L301.024 117.812C300.197 117.891 299.453 118.209 298.874 118.607C298.295 119.004 297.882 119.64 297.717 120.435C297.551 121.151 297.717 121.707 298.13 122.184C298.543 122.661 299.122 122.9 299.949 122.9C300.61 122.9 301.272 122.741 301.933 122.502C302.595 122.264 303.091 121.866 303.421 121.548C303.421 121.866 303.421 122.105 303.504 122.343C303.669 122.661 304 122.9 304.496 122.9C304.661 122.9 304.827 122.9 304.992 122.9C305.075 122.9 305.323 122.82 305.571 122.82L305.819 121.787C305.736 121.787 305.654 121.787 305.571 121.787C305.488 121.787 305.406 121.787 305.323 121.787C305.157 121.787 304.992 121.707 304.992 121.628C304.992 121.548 304.909 121.389 304.992 121.31L305.902 116.301ZM303.669 119.481C303.504 120.356 302.925 120.992 302.016 121.389C301.437 121.628 300.941 121.707 300.445 121.707C300.032 121.707 299.701 121.628 299.453 121.389C299.205 121.151 299.122 120.833 299.205 120.435C299.288 119.879 299.618 119.481 300.114 119.243C300.445 119.084 300.858 119.004 301.354 118.925L302.264 118.845C302.512 118.845 302.843 118.766 303.173 118.686C303.504 118.607 303.752 118.527 303.917 118.448L303.669 119.481Z" fill="#FBFCF2"/>
<path d="M314.335 114.155L313.426 118.289C313.26 119.084 313.012 119.799 312.682 120.197C312.103 121.071 311.359 121.548 310.284 121.548C309.54 121.548 309.127 121.31 308.961 120.753C308.879 120.515 308.879 120.117 308.961 119.72L310.201 114.155H308.713L307.473 119.879C307.308 120.594 307.308 121.151 307.473 121.628C307.721 122.423 308.548 122.82 309.788 122.82C310.615 122.82 311.359 122.582 312.02 122.184C312.351 121.946 312.682 121.707 312.93 121.389L312.682 122.661H314.087L315.906 114.235H314.335V114.155Z" fill="#FBFCF2"/>
<path d="M325 114.234H323.181L320.453 117.176L319.13 114.234H317.229L319.213 118.368L315.162 122.661H317.063L319.874 119.481L321.362 122.661H323.264L321.114 118.368L325 114.234Z" fill="#FBFCF2"/>
</g>
<defs>
<linearGradient id="paint0_linear_548_1731" x1="247.146" y1="44.9017" x2="247.146" y2="0.206637" gradientUnits="userSpaceOnUse">
<stop stop-color="#BF1A00"/>
<stop offset="1" stop-color="#FF2C1C"/>
</linearGradient>
<linearGradient id="paint1_linear_548_1731" x1="266.648" y1="44.9014" x2="266.648" y2="0.175719" gradientUnits="userSpaceOnUse">
<stop stop-color="#F76A1E"/>
<stop offset="1" stop-color="#F7B11E"/>
</linearGradient>
<linearGradient id="paint2_linear_548_1731" x1="286.222" y1="44.9017" x2="286.222" y2="0.144155" gradientUnits="userSpaceOnUse">
<stop stop-color="#D4D600"/>
<stop offset="1" stop-color="#FFF36A"/>
</linearGradient>
<clipPath id="clip0_548_1731">
<rect width="325" height="126" fill="white"/>
</clipPath>
</defs>
</svg>
